<svg width="734" height="400" xmlns="http://www.w3.org/2000/svg">
    <circle cx="0" cy="400" r="400" fill="rgba(55, 55, 55, .1)" stroke="black" stroke-width="2"/>
    <rect x="0" y="0" width="400" height="400" fill="none" stroke="black" stroke-width="2"/>

    <circle cx="212" cy="50" r="4" fill="black"/>
    <circle cx="153" cy="397" r="4" fill="blue"/>
    <circle cx="201" cy="9" r="4" fill="black"/>
    <circle cx="225" cy="42" r="4" fill="black"/>
    <circle cx="210" cy="251" r="4" fill="blue"/>
    <circle cx="296" cy="55" r="4" fill="black"/>
    <circle cx="175" cy="21" r="4" fill="black"/>
    <circle cx="288" cy="201" r="4" fill="blue"/>
    <circle cx="68" cy="224" r="4" fill="blue"/>
    <circle cx="210" cy="267" r="4" fill="blue"/>
    <circle cx="254" cy="18" r="4" fill="black"/>
    <circle cx="173" cy="11" r="4" fill="black"/>
    <circle cx="33" cy="356" r="4" fill="blue"/>
    <circle cx="138" cy="397" r="4" fill="blue"/>
    <circle cx="152" cy="396" r="4" fill="blue"/>
    <circle cx="87" cy="338" r="4" fill="blue"/>
    <circle cx="70" cy="16" r="4" fill="blue"/>
    <circle cx="180" cy="228" r="4" fill="blue"/>
    <circle cx="228" cy="345" r="4" fill="blue"/>
    <circle cx="131" cy="363" r="4" fill="blue"/>
    <circle cx="184" cy="33" r="4" fill="black"/>
    <circle cx="79" cy="231" r="4" fill="blue"/>
    <circle cx="203" cy="395" r="4" fill="blue"/>
    <circle cx="182" cy="119" r="4" fill="blue"/>
    <circle cx="205" cy="29" r="4" fill="black"/>
    <circle cx="362" cy="215" r="4" fill="black"/>
    <circle cx="362" cy="356" r="4" fill="blue"/>
    <circle cx="372" cy="165" r="4" fill="black"/>
    <circle cx="82" cy="261" r="4" fill="blue"/>
    <circle cx="253" cy="189" r="4" fill="blue"/>
    <circle cx="196" cy="144" r="4" fill="blue"/>
    <circle cx="144" cy="308" r="4" fill="blue"/>
    <circle cx="317" cy="390" r="4" fill="blue"/>
    <circle cx="243" cy="211" r="4" fill="blue"/>
    <circle cx="0" cy="342" r="4" fill="blue"/>
    <circle cx="333" cy="244" r="4" fill="blue"/>
    <circle cx="134" cy="168" r="4" fill="blue"/>
    <circle cx="106" cy="323" r="4" fill="blue"/>
    <circle cx="102" cy="182" r="4" fill="blue"/>
    <circle cx="368" cy="149" r="4" fill="black"/>
    <circle cx="99" cy="170" r="4" fill="blue"/>
    <circle cx="117" cy="159" r="4" fill="blue"/>
    <circle cx="108" cy="105" r="4" fill="blue"/>
    <circle cx="277" cy="268" r="4" fill="blue"/>
    <circle cx="84" cy="109" r="4" fill="blue"/>
    <circle cx="151" cy="271" r="4" fill="blue"/>
    <circle cx="313" cy="307" r="4" fill="blue"/>
    <circle cx="16" cy="71" r="4" fill="blue"/>
    <circle cx="337" cy="280" r="4" fill="blue"/>
    <circle cx="182" cy="194" r="4" fill="blue"/>
    <circle cx="378" cy="369" r="4" fill="blue"/>
    <circle cx="245" cy="210" r="4" fill="blue"/>
    <circle cx="113" cy="61" r="4" fill="blue"/>
    <circle cx="83" cy="317" r="4" fill="blue"/>
    <circle cx="69" cy="278" r="4" fill="blue"/>
    <circle cx="187" cy="275" r="4" fill="blue"/>
    <circle cx="283" cy="193" r="4" fill="blue"/>
    <circle cx="346" cy="216" r="4" fill="blue"/>
    <circle cx="241" cy="352" r="4" fill="blue"/>
    <circle cx="237" cy="100" r="4" fill="blue"/>
    <circle cx="15" cy="345" r="4" fill="blue"/>
    <circle cx="369" cy="346" r="4" fill="blue"/>
    <circle cx="3" cy="189" r="4" fill="blue"/>
    <circle cx="238" cy="47" r="4" fill="black"/>
    <circle cx="386" cy="340" r="4" fill="blue"/>
    <circle cx="228" cy="100" r="4" fill="blue"/>
    <circle cx="273" cy="31" r="4" fill="black"/>
    <circle cx="7" cy="122" r="4" fill="blue"/>
    <circle cx="99" cy="51" r="4" fill="blue"/>
    <circle cx="34" cy="278" r="4" fill="blue"/>
    <circle cx="237" cy="217" r="4" fill="blue"/>
    <circle cx="187" cy="239" r="4" fill="blue"/>
    <circle cx="191" cy="20" r="4" fill="black"/>
    <circle cx="13" cy="271" r="4" fill="blue"/>
    <circle cx="368" cy="77" r="4" fill="black"/>
    <circle cx="397" cy="251" r="4" fill="black"/>
    <circle cx="101" cy="219" r="4" fill="blue"/>
    <circle cx="238" cy="189" r="4" fill="blue"/>
    <circle cx="270" cy="268" r="4" fill="blue"/>
    <circle cx="348" cy="143" r="4" fill="black"/>
    <circle cx="319" cy="357" r="4" fill="blue"/>
    <circle cx="214" cy="125" r="4" fill="blue"/>
    <circle cx="279" cy="148" r="4" fill="blue"/>
    <circle cx="56" cy="258" r="4" fill="blue"/>
    <circle cx="80" cy="294" r="4" fill="blue"/>
    <circle cx="80" cy="85" r="4" fill="blue"/>
    <circle cx="213" cy="296" r="4" fill="blue"/>
    <circle cx="55" cy="373" r="4" fill="blue"/>
    <circle cx="308" cy="234" r="4" fill="blue"/>
    <circle cx="347" cy="287" r="4" fill="blue"/>
    <circle cx="146" cy="292" r="4" fill="blue"/>
    <circle cx="23" cy="370" r="4" fill="blue"/>
    <circle cx="351" cy="191" r="4" fill="black"/>
    <circle cx="376" cy="325" r="4" fill="blue"/>
    <circle cx="317" cy="364" r="4" fill="blue"/>
    <circle cx="18" cy="149" r="4" fill="blue"/>
    <circle cx="386" cy="53" r="4" fill="black"/>
    <circle cx="9" cy="198" r="4" fill="blue"/>
    <circle cx="82" cy="205" r="4" fill="blue"/>
    <circle cx="206" cy="116" r="4" fill="blue"/>
    <circle cx="187" cy="296" r="4" fill="blue"/>
    <circle cx="287" cy="129" r="4" fill="blue"/>
    <circle cx="321" cy="391" r="4" fill="blue"/>
    <circle cx="393" cy="379" r="4" fill="blue"/>
    <circle cx="198" cy="390" r="4" fill="blue"/>
    <circle cx="328" cy="382" r="4" fill="blue"/>
    <circle cx="157" cy="179" r="4" fill="blue"/>
    <circle cx="93" cy="152" r="4" fill="blue"/>
    <circle cx="358" cy="89" r="4" fill="black"/>
    <circle cx="35" cy="17" r="4" fill="blue"/>
    <circle cx="368" cy="335" r="4" fill="blue"/>
    <circle cx="171" cy="126" r="4" fill="blue"/>
    <circle cx="148" cy="274" r="4" fill="blue"/>
    <circle cx="217" cy="214" r="4" fill="blue"/>
    <circle cx="85" cy="87" r="4" fill="blue"/>
    <circle cx="380" cy="280" r="4" fill="blue"/>
    <circle cx="288" cy="145" r="4" fill="blue"/>
    <circle cx="282" cy="137" r="4" fill="blue"/>
    <circle cx="118" cy="264" r="4" fill="blue"/>
    <circle cx="261" cy="276" r="4" fill="blue"/>
    <circle cx="35" cy="69" r="4" fill="blue"/>
    <circle cx="298" cy="243" r="4" fill="blue"/>
    <circle cx="108" cy="8" r="4" fill="black"/>
    <circle cx="195" cy="30" r="4" fill="black"/>
    <circle cx="8" cy="291" r="4" fill="blue"/>
    <circle cx="259" cy="237" r="4" fill="blue"/>
    <circle cx="34" cy="209" r="4" fill="blue"/>
    <circle cx="209" cy="164" r="4" fill="blue"/>
    <circle cx="360" cy="319" r="4" fill="blue"/>
    <circle cx="172" cy="212" r="4" fill="blue"/>
    <circle cx="106" cy="81" r="4" fill="blue"/>
    <circle cx="307" cy="219" r="4" fill="blue"/>
    <circle cx="395" cy="1" r="4" fill="black"/>
    <circle cx="292" cy="360" r="4" fill="blue"/>
    <circle cx="94" cy="23" r="4" fill="blue"/>
    <circle cx="392" cy="319" r="4" fill="black"/>
    <circle cx="293" cy="51" r="4" fill="black"/>
    <circle cx="34" cy="336" r="4" fill="blue"/>
    <circle cx="280" cy="53" r="4" fill="black"/>
    <circle cx="386" cy="41" r="4" fill="black"/>
    <circle cx="389" cy="157" r="4" fill="black"/>
    <circle cx="20" cy="296" r="4" fill="blue"/>
    <circle cx="218" cy="374" r="4" fill="blue"/>
    <circle cx="228" cy="69" r="4" fill="black"/>
    <circle cx="356" cy="384" r="4" fill="blue"/>
    <circle cx="185" cy="233" r="4" fill="blue"/>
    <circle cx="39" cy="257" r="4" fill="blue"/>
    <circle cx="353" cy="45" r="4" fill="black"/>
    <circle cx="110" cy="156" r="4" fill="blue"/>
    <circle cx="176" cy="292" r="4" fill="blue"/>
    <circle cx="381" cy="244" r="4" fill="black"/>
    <circle cx="337" cy="303" r="4" fill="blue"/>
    <circle cx="358" cy="368" r="4" fill="blue"/>
    <circle cx="165" cy="174" r="4" fill="blue"/>
    <circle cx="196" cy="123" r="4" fill="blue"/>
    <circle cx="210" cy="27" r="4" fill="black"/>
    <circle cx="145" cy="118" r="4" fill="blue"/>
    <circle cx="89" cy="242" r="4" fill="blue"/>
    <circle cx="1" cy="206" r="4" fill="blue"/>
    <circle cx="39" cy="145" r="4" fill="blue"/>
    <circle cx="170" cy="14" r="4" fill="black"/>
    <circle cx="44" cy="85" r="4" fill="blue"/>
    <circle cx="298" cy="176" r="4" fill="blue"/>
    <circle cx="176" cy="135" r="4" fill="blue"/>
    <circle cx="305" cy="268" r="4" fill="blue"/>
    <circle cx="84" cy="263" r="4" fill="blue"/>
    <circle cx="222" cy="258" r="4" fill="blue"/>
    <circle cx="259" cy="333" r="4" fill="blue"/>
    <circle cx="353" cy="183" r="4" fill="black"/>
    <circle cx="286" cy="252" r="4" fill="blue"/>
    <circle cx="141" cy="216" r="4" fill="blue"/>
    <circle cx="141" cy="382" r="4" fill="blue"/>
    <circle cx="64" cy="370" r="4" fill="blue"/>
    <circle cx="345" cy="140" r="4" fill="black"/>
    <circle cx="345" cy="397" r="4" fill="blue"/>
    <circle cx="217" cy="18" r="4" fill="black"/>
    <circle cx="121" cy="349" r="4" fill="blue"/>
    <circle cx="385" cy="325" r="4" fill="blue"/>
    <circle cx="347" cy="396" r="4" fill="blue"/>
    <circle cx="89" cy="292" r="4" fill="blue"/>
    <circle cx="4" cy="107" r="4" fill="blue"/>
    <circle cx="128" cy="359" r="4" fill="blue"/>
    <circle cx="250" cy="13" r="4" fill="black"/>
    <circle cx="336" cy="125" r="4" fill="black"/>
    <circle cx="161" cy="359" r="4" fill="blue"/>
    <circle cx="0" cy="265" r="4" fill="blue"/>
    <circle cx="257" cy="337" r="4" fill="blue"/>
    <circle cx="378" cy="285" r="4" fill="blue"/>
    <circle cx="101" cy="66" r="4" fill="blue"/>
    <circle cx="334" cy="361" r="4" fill="blue"/>
    <circle cx="68" cy="88" r="4" fill="blue"/>
    <circle cx="218" cy="358" r="4" fill="blue"/>
    <circle cx="167" cy="300" r="4" fill="blue"/>
    <circle cx="37" cy="331" r="4" fill="blue"/>
    <circle cx="43" cy="64" r="4" fill="blue"/>
    <circle cx="341" cy="127" r="4" fill="black"/>
    <circle cx="376" cy="61" r="4" fill="black"/>
    <circle cx="243" cy="394" r="4" fill="blue"/>
    <circle cx="313" cy="128" r="4" fill="black"/>
    <circle cx="27" cy="264" r="4" fill="blue"/>
    <circle cx="75" cy="120" r="4" fill="blue"/>
    <circle cx="118" cy="187" r="4" fill="blue"/>
    <circle cx="204" cy="107" r="4" fill="blue"/>
    <circle cx="233" cy="121" r="4" fill="blue"/>
    <circle cx="78" cy="372" r="4" fill="blue"/>
    <circle cx="33" cy="36" r="4" fill="blue"/>
    <circle cx="362" cy="122" r="4" fill="black"/>
    <circle cx="103" cy="44" r="4" fill="blue"/>
    <circle cx="68" cy="293" r="4" fill="blue"/>
    <circle cx="123" cy="39" r="4" fill="blue"/>
    <circle cx="195" cy="16" r="4" fill="black"/>
    <circle cx="362" cy="52" r="4" fill="black"/>
    <circle cx="275" cy="13" r="4" fill="black"/>
    <circle cx="72" cy="332" r="4" fill="blue"/>
    <circle cx="385" cy="309" r="4" fill="blue"/>
    <circle cx="355" cy="143" r="4" fill="black"/>
    <circle cx="388" cy="61" r="4" fill="black"/>
    <circle cx="139" cy="52" r="4" fill="blue"/>
    <circle cx="197" cy="232" r="4" fill="blue"/>
    <circle cx="52" cy="91" r="4" fill="blue"/>
    <circle cx="309" cy="364" r="4" fill="blue"/>
    <circle cx="138" cy="272" r="4" fill="blue"/>
    <circle cx="45" cy="367" r="4" fill="blue"/>
    <circle cx="224" cy="279" r="4" fill="blue"/>
    <circle cx="120" cy="253" r="4" fill="blue"/>
    <circle cx="59" cy="267" r="4" fill="blue"/>
    <circle cx="322" cy="241" r="4" fill="blue"/>
    <circle cx="281" cy="191" r="4" fill="blue"/>
    <circle cx="288" cy="120" r="4" fill="black"/>
    <circle cx="232" cy="200" r="4" fill="blue"/>
    <circle cx="334" cy="365" r="4" fill="blue"/>
    <circle cx="214" cy="92" r="4" fill="blue"/>
    <circle cx="40" cy="238" r="4" fill="blue"/>
    <circle cx="270" cy="179" r="4" fill="blue"/>
    <circle cx="25" cy="131" r="4" fill="blue"/>
    <circle cx="333" cy="41" r="4" fill="black"/>
    <circle cx="233" cy="214" r="4" fill="blue"/>
    <circle cx="205" cy="231" r="4" fill="blue"/>
    <circle cx="27" cy="92" r="4" fill="blue"/>
    <circle cx="57" cy="174" r="4" fill="blue"/>
    <circle cx="242" cy="359" r="4" fill="blue"/>
    <circle cx="205" cy="96" r="4" fill="blue"/>
    <circle cx="319" cy="9" r="4" fill="black"/>
    <circle cx="322" cy="85" r="4" fill="black"/>
    <circle cx="368" cy="58" r="4" fill="black"/>
    <circle cx="109" cy="188" r="4" fill="blue"/>
    <circle cx="308" cy="112" r="4" fill="black"/>
    <circle cx="69" cy="179" r="4" fill="blue"/>
    <circle cx="330" cy="362" r="4" fill="blue"/>
    <circle cx="150" cy="235" r="4" fill="blue"/>
    <circle cx="374" cy="315" r="4" fill="blue"/>
    <circle cx="57" cy="88" r="4" fill="blue"/>
    <circle cx="343" cy="344" r="4" fill="blue"/>
    <circle cx="375" cy="61" r="4" fill="black"/>
    <circle cx="99" cy="90" r="4" fill="blue"/>
    <circle cx="11" cy="387" r="4" fill="blue"/>
    <circle cx="87" cy="352" r="4" fill="blue"/>
    <circle cx="10" cy="335" r="4" fill="blue"/>
    <circle cx="172" cy="70" r="4" fill="blue"/>
    <circle cx="141" cy="287" r="4" fill="blue"/>
    <circle cx="394" cy="312" r="4" fill="black"/>
    <circle cx="245" cy="129" r="4" fill="blue"/>
    <circle cx="148" cy="388" r="4" fill="blue"/>
    <circle cx="255" cy="172" r="4" fill="blue"/>
    <circle cx="326" cy="85" r="4" fill="black"/>
    <circle cx="7" cy="323" r="4" fill="blue"/>
    <circle cx="259" cy="77" r="4" fill="black"/>
    <circle cx="244" cy="18" r="4" fill="black"/>
    <circle cx="43" cy="243" r="4" fill="blue"/>
    <circle cx="236" cy="378" r="4" fill="blue"/>
    <circle cx="9" cy="75" r="4" fill="blue"/>
    <circle cx="204" cy="78" r="4" fill="blue"/>
    <circle cx="61" cy="389" r="4" fill="blue"/>
    <circle cx="226" cy="372" r="4" fill="blue"/>
    <circle cx="385" cy="0" r="4" fill="black"/>
    <circle cx="107" cy="78" r="4" fill="blue"/>
    <circle cx="78" cy="310" r="4" fill="blue"/>
    <circle cx="314" cy="327" r="4" fill="blue"/>
    <circle cx="319" cy="395" r="4" fill="blue"/>
    <circle cx="44" cy="281" r="4" fill="blue"/>
    <circle cx="192" cy="62" r="4" fill="blue"/>
    <circle cx="249" cy="346" r="4" fill="blue"/>
    <circle cx="52" cy="199" r="4" fill="blue"/>
    <circle cx="149" cy="399" r="4" fill="blue"/>
    <circle cx="112" cy="239" r="4" fill="blue"/>
    <circle cx="303" cy="399" r="4" fill="blue"/>
    <circle cx="190" cy="222" r="4" fill="blue"/>
    <circle cx="239" cy="229" r="4" fill="blue"/>
    <circle cx="77" cy="154" r="4" fill="blue"/>
    <circle cx="328" cy="381" r="4" fill="blue"/>
    <circle cx="92" cy="128" r="4" fill="blue"/>
    <circle cx="318" cy="253" r="4" fill="blue"/>
    <circle cx="172" cy="82" r="4" fill="blue"/>
    <circle cx="12" cy="211" r="4" fill="blue"/>
    <circle cx="213" cy="378" r="4" fill="blue"/>
    <circle cx="189" cy="388" r="4" fill="blue"/>
    <circle cx="282" cy="252" r="4" fill="blue"/>
    <circle cx="197" cy="313" r="4" fill="blue"/>
    <circle cx="80" cy="178" r="4" fill="blue"/>
    <circle cx="369" cy="378" r="4" fill="blue"/>
    <circle cx="17" cy="30" r="4" fill="blue"/>
    <circle cx="334" cy="104" r="4" fill="black"/>
    <circle cx="328" cy="227" r="4" fill="blue"/>
    <circle cx="218" cy="293" r="4" fill="blue"/>
    <circle cx="74" cy="54" r="4" fill="blue"/>
    <circle cx="50" cy="75" r="4" fill="blue"/>
    <circle cx="55" cy="265" r="4" fill="blue"/>
    <circle cx="52" cy="8" r="4" fill="blue"/>
    <circle cx="302" cy="136" r="4" fill="black"/>
    <circle cx="309" cy="238" r="4" fill="blue"/>
    <circle cx="376" cy="289" r="4" fill="blue"/>
    <circle cx="4" cy="177" r="4" fill="blue"/>
    <circle cx="80" cy="185" r="4" fill="blue"/>
    <circle cx="64" cy="324" r="4" fill="blue"/>
    <circle cx="317" cy="76" r="4" fill="black"/>
    <circle cx="360" cy="167" r="4" fill="black"/>
    <circle cx="253" cy="269" r="4" fill="blue"/>
    <circle cx="223" cy="50" r="4" fill="black"/>
    <circle cx="282" cy="204" r="4" fill="blue"/>
    <circle cx="221" cy="162" r="4" fill="blue"/>
    <circle cx="257" cy="14" r="4" fill="black"/>
    <circle cx="204" cy="77" r="4" fill="blue"/>
    <circle cx="39" cy="22" r="4" fill="blue"/>
    <circle cx="291" cy="145" r="4" fill="blue"/>
    <circle cx="355" cy="129" r="4" fill="black"/>
    <circle cx="117" cy="242" r="4" fill="blue"/>
    <circle cx="203" cy="286" r="4" fill="blue"/>
    <circle cx="126" cy="281" r="4" fill="blue"/>
    <circle cx="37" cy="302" r="4" fill="blue"/>
    <circle cx="0" cy="190" r="4" fill="blue"/>
    <circle cx="16" cy="328" r="4" fill="blue"/>
    <circle cx="114" cy="43" r="4" fill="blue"/>
    <circle cx="42" cy="205" r="4" fill="blue"/>
    <circle cx="155" cy="44" r="4" fill="blue"/>
    <circle cx="340" cy="356" r="4" fill="blue"/>
    <circle cx="10" cy="388" r="4" fill="blue"/>
    <circle cx="157" cy="156" r="4" fill="blue"/>
    <circle cx="357" cy="249" r="4" fill="blue"/>
    <circle cx="140" cy="21" r="4" fill="black"/>
    <circle cx="150" cy="82" r="4" fill="blue"/>
    <circle cx="46" cy="374" r="4" fill="blue"/>
    <circle cx="237" cy="276" r="4" fill="blue"/>
    <circle cx="47" cy="226" r="4" fill="blue"/>
    <circle cx="389" cy="55" r="4" fill="black"/>
    <circle cx="326" cy="184" r="4" fill="blue"/>
    <circle cx="78" cy="102" r="4" fill="blue"/>
    <circle cx="223" cy="76" r="4" fill="blue"/>
    <circle cx="288" cy="241" r="4" fill="blue"/>
    <circle cx="0" cy="330" r="4" fill="blue"/>
    <circle cx="316" cy="4" r="4" fill="black"/>
    <circle cx="389" cy="262" r="4" fill="black"/>
    <circle cx="385" cy="345" r="4" fill="blue"/>
    <circle cx="8" cy="389" r="4" fill="blue"/>
    <circle cx="253" cy="239" r="4" fill="blue"/>
    <circle cx="147" cy="186" r="4" fill="blue"/>
    <circle cx="375" cy="6" r="4" fill="black"/>
    <circle cx="391" cy="182" r="4" fill="black"/>
    <circle cx="31" cy="294" r="4" fill="blue"/>
    <circle cx="372" cy="274" r="4" fill="blue"/>
    <circle cx="17" cy="299" r="4" fill="blue"/>
    <circle cx="380" cy="289" r="4" fill="blue"/>
    <circle cx="108" cy="28" r="4" fill="blue"/>
    <circle cx="276" cy="42" r="4" fill="black"/>
    <circle cx="236" cy="157" r="4" fill="blue"/>
    <circle cx="246" cy="79" r="4" fill="black"/>
    <circle cx="133" cy="257" r="4" fill="blue"/>
    <circle cx="32" cy="344" r="4" fill="blue"/>
    <circle cx="62" cy="109" r="4" fill="blue"/>
    <circle cx="225" cy="285" r="4" fill="blue"/>
    <circle cx="39" cy="292" r="4" fill="blue"/>
    <circle cx="81" cy="239" r="4" fill="blue"/>
    <circle cx="190" cy="288" r="4" fill="blue"/>
    <circle cx="371" cy="50" r="4" fill="black"/>
    <circle cx="47" cy="327" r="4" fill="blue"/>
    <circle cx="245" cy="214" r="4" fill="blue"/>
    <circle cx="348" cy="259" r="4" fill="blue"/>
    <circle cx="111" cy="369" r="4" fill="blue"/>
    <circle cx="144" cy="245" r="4" fill="blue"/>
    <circle cx="278" cy="290" r="4" fill="blue"/>
    <circle cx="107" cy="83" r="4" fill="blue"/>
    <circle cx="121" cy="85" r="4" fill="blue"/>
    <circle cx="27" cy="9" r="4" fill="blue"/>
    <circle cx="62" cy="127" r="4" fill="blue"/>
    <circle cx="237" cy="353" r="4" fill="blue"/>
    <circle cx="229" cy="181" r="4" fill="blue"/>
    <circle cx="123" cy="25" r="4" fill="blue"/>
    <circle cx="38" cy="260" r="4" fill="blue"/>
    <circle cx="140" cy="51" r="4" fill="blue"/>
    <circle cx="103" cy="306" r="4" fill="blue"/>
    <circle cx="0" cy="64" r="4" fill="blue"/>
    <circle cx="308" cy="301" r="4" fill="blue"/>
    <circle cx="247" cy="67" r="4" fill="black"/>
    <circle cx="328" cy="137" r="4" fill="black"/>
    <circle cx="305" cy="309" r="4" fill="blue"/>
    <circle cx="245" cy="300" r="4" fill="blue"/>
    <circle cx="15" cy="74" r="4" fill="blue"/>
    <circle cx="381" cy="130" r="4" fill="black"/>
    <circle cx="197" cy="87" r="4" fill="blue"/>
    <circle cx="57" cy="55" r="4" fill="blue"/>
    <circle cx="319" cy="23" r="4" fill="black"/>

    <circle cx="500" cy="314" r="4" fill="blue"/>
    <circle cx="512" cy="314" r="4" fill="blue"/>
    <circle cx="524" cy="314" r="4" fill="blue"/>
    <circle cx="536" cy="314" r="4" fill="blue"/>
    <circle cx="548" cy="314" r="4" fill="blue"/>
    <circle cx="560" cy="314" r="4" fill="blue"/>
    <circle cx="572" cy="314" r="4" fill="blue"/>
    <circle cx="584" cy="314" r="4" fill="blue"/>
    <circle cx="596" cy="314" r="4" fill="blue"/>
    <circle cx="608" cy="314" r="4" fill="blue"/>
    <circle cx="620" cy="314" r="4" fill="blue"/>
    <circle cx="632" cy="314" r="4" fill="blue"/>
    <circle cx="644" cy="314" r="4" fill="blue"/>
    <circle cx="656" cy="314" r="4" fill="blue"/>
    <circle cx="668" cy="314" r="4" fill="blue"/>
    <circle cx="680" cy="314" r="4" fill="blue"/>
    <circle cx="692" cy="314" r="4" fill="blue"/>
    <circle cx="704" cy="314" r="4" fill="blue"/>
    <circle cx="716" cy="314" r="4" fill="blue"/>
    <circle cx="728" cy="314" r="4" fill="blue"/>
    <circle cx="500" cy="302" r="4" fill="blue"/>
    <circle cx="512" cy="302" r="4" fill="blue"/>
    <circle cx="524" cy="302" r="4" fill="blue"/>
    <circle cx="536" cy="302" r="4" fill="blue"/>
    <circle cx="548" cy="302" r="4" fill="blue"/>
    <circle cx="560" cy="302" r="4" fill="blue"/>
    <circle cx="572" cy="302" r="4" fill="blue"/>
    <circle cx="584" cy="302" r="4" fill="blue"/>
    <circle cx="596" cy="302" r="4" fill="blue"/>
    <circle cx="608" cy="302" r="4" fill="blue"/>
    <circle cx="620" cy="302" r="4" fill="blue"/>
    <circle cx="632" cy="302" r="4" fill="blue"/>
    <circle cx="644" cy="302" r="4" fill="blue"/>
    <circle cx="656" cy="302" r="4" fill="blue"/>
    <circle cx="668" cy="302" r="4" fill="blue"/>
    <circle cx="680" cy="302" r="4" fill="blue"/>
    <circle cx="692" cy="302" r="4" fill="blue"/>
    <circle cx="704" cy="302" r="4" fill="blue"/>
    <circle cx="716" cy="302" r="4" fill="blue"/>
    <circle cx="728" cy="302" r="4" fill="blue"/>
    <circle cx="500" cy="290" r="4" fill="blue"/>
    <circle cx="512" cy="290" r="4" fill="blue"/>
    <circle cx="524" cy="290" r="4" fill="blue"/>
    <circle cx="536" cy="290" r="4" fill="blue"/>
    <circle cx="548" cy="290" r="4" fill="blue"/>
    <circle cx="560" cy="290" r="4" fill="blue"/>
    <circle cx="572" cy="290" r="4" fill="blue"/>
    <circle cx="584" cy="290" r="4" fill="blue"/>
    <circle cx="596" cy="290" r="4" fill="blue"/>
    <circle cx="608" cy="290" r="4" fill="blue"/>
    <circle cx="620" cy="290" r="4" fill="blue"/>
    <circle cx="632" cy="290" r="4" fill="blue"/>
    <circle cx="644" cy="290" r="4" fill="blue"/>
    <circle cx="656" cy="290" r="4" fill="blue"/>
    <circle cx="668" cy="290" r="4" fill="blue"/>
    <circle cx="680" cy="290" r="4" fill="blue"/>
    <circle cx="692" cy="290" r="4" fill="blue"/>
    <circle cx="704" cy="290" r="4" fill="blue"/>
    <circle cx="716" cy="290" r="4" fill="blue"/>
    <circle cx="728" cy="290" r="4" fill="blue"/>
    <circle cx="500" cy="278" r="4" fill="blue"/>
    <circle cx="512" cy="278" r="4" fill="blue"/>
    <circle cx="524" cy="278" r="4" fill="blue"/>
    <circle cx="536" cy="278" r="4" fill="blue"/>
    <circle cx="548" cy="278" r="4" fill="blue"/>
    <circle cx="560" cy="278" r="4" fill="blue"/>
    <circle cx="572" cy="278" r="4" fill="blue"/>
    <circle cx="584" cy="278" r="4" fill="blue"/>
    <circle cx="596" cy="278" r="4" fill="blue"/>
    <circle cx="608" cy="278" r="4" fill="blue"/>
    <circle cx="620" cy="278" r="4" fill="blue"/>
    <circle cx="632" cy="278" r="4" fill="blue"/>
    <circle cx="644" cy="278" r="4" fill="blue"/>
    <circle cx="656" cy="278" r="4" fill="blue"/>
    <circle cx="668" cy="278" r="4" fill="blue"/>
    <circle cx="680" cy="278" r="4" fill="blue"/>
    <circle cx="692" cy="278" r="4" fill="blue"/>
    <circle cx="704" cy="278" r="4" fill="blue"/>
    <circle cx="716" cy="278" r="4" fill="blue"/>
    <circle cx="728" cy="278" r="4" fill="blue"/>
    <circle cx="500" cy="266" r="4" fill="blue"/>
    <circle cx="512" cy="266" r="4" fill="blue"/>
    <circle cx="524" cy="266" r="4" fill="blue"/>
    <circle cx="536" cy="266" r="4" fill="blue"/>
    <circle cx="548" cy="266" r="4" fill="blue"/>
    <circle cx="560" cy="266" r="4" fill="blue"/>
    <circle cx="572" cy="266" r="4" fill="blue"/>
    <circle cx="584" cy="266" r="4" fill="blue"/>
    <circle cx="596" cy="266" r="4" fill="blue"/>
    <circle cx="608" cy="266" r="4" fill="blue"/>
    <circle cx="620" cy="266" r="4" fill="blue"/>
    <circle cx="632" cy="266" r="4" fill="blue"/>
    <circle cx="644" cy="266" r="4" fill="blue"/>
    <circle cx="656" cy="266" r="4" fill="blue"/>
    <circle cx="668" cy="266" r="4" fill="blue"/>
    <circle cx="680" cy="266" r="4" fill="blue"/>
    <circle cx="692" cy="266" r="4" fill="blue"/>
    <circle cx="704" cy="266" r="4" fill="blue"/>
    <circle cx="716" cy="266" r="4" fill="blue"/>
    <circle cx="728" cy="266" r="4" fill="blue"/>
    <circle cx="500" cy="254" r="4" fill="blue"/>
    <circle cx="512" cy="254" r="4" fill="blue"/>
    <circle cx="524" cy="254" r="4" fill="blue"/>
    <circle cx="536" cy="254" r="4" fill="blue"/>
    <circle cx="548" cy="254" r="4" fill="blue"/>
    <circle cx="560" cy="254" r="4" fill="blue"/>
    <circle cx="572" cy="254" r="4" fill="blue"/>
    <circle cx="584" cy="254" r="4" fill="blue"/>
    <circle cx="596" cy="254" r="4" fill="blue"/>
    <circle cx="608" cy="254" r="4" fill="blue"/>
    <circle cx="620" cy="254" r="4" fill="blue"/>
    <circle cx="632" cy="254" r="4" fill="blue"/>
    <circle cx="644" cy="254" r="4" fill="blue"/>
    <circle cx="656" cy="254" r="4" fill="blue"/>
    <circle cx="668" cy="254" r="4" fill="blue"/>
    <circle cx="680" cy="254" r="4" fill="blue"/>
    <circle cx="692" cy="254" r="4" fill="blue"/>
    <circle cx="704" cy="254" r="4" fill="blue"/>
    <circle cx="716" cy="254" r="4" fill="blue"/>
    <circle cx="728" cy="254" r="4" fill="blue"/>
    <circle cx="500" cy="242" r="4" fill="blue"/>
    <circle cx="512" cy="242" r="4" fill="blue"/>
    <circle cx="524" cy="242" r="4" fill="blue"/>
    <circle cx="536" cy="242" r="4" fill="blue"/>
    <circle cx="548" cy="242" r="4" fill="blue"/>
    <circle cx="560" cy="242" r="4" fill="blue"/>
    <circle cx="572" cy="242" r="4" fill="blue"/>
    <circle cx="584" cy="242" r="4" fill="blue"/>
    <circle cx="596" cy="242" r="4" fill="blue"/>
    <circle cx="608" cy="242" r="4" fill="blue"/>
    <circle cx="620" cy="242" r="4" fill="blue"/>
    <circle cx="632" cy="242" r="4" fill="blue"/>
    <circle cx="644" cy="242" r="4" fill="blue"/>
    <circle cx="656" cy="242" r="4" fill="blue"/>
    <circle cx="668" cy="242" r="4" fill="blue"/>
    <circle cx="680" cy="242" r="4" fill="blue"/>
    <circle cx="692" cy="242" r="4" fill="blue"/>
    <circle cx="704" cy="242" r="4" fill="blue"/>
    <circle cx="716" cy="242" r="4" fill="blue"/>
    <circle cx="728" cy="242" r="4" fill="blue"/>
    <circle cx="500" cy="230" r="4" fill="blue"/>
    <circle cx="512" cy="230" r="4" fill="blue"/>
    <circle cx="524" cy="230" r="4" fill="blue"/>
    <circle cx="536" cy="230" r="4" fill="blue"/>
    <circle cx="548" cy="230" r="4" fill="blue"/>
    <circle cx="560" cy="230" r="4" fill="blue"/>
    <circle cx="572" cy="230" r="4" fill="blue"/>
    <circle cx="584" cy="230" r="4" fill="blue"/>
    <circle cx="596" cy="230" r="4" fill="blue"/>
    <circle cx="608" cy="230" r="4" fill="blue"/>
    <circle cx="620" cy="230" r="4" fill="blue"/>
    <circle cx="632" cy="230" r="4" fill="blue"/>
    <circle cx="644" cy="230" r="4" fill="blue"/>
    <circle cx="656" cy="230" r="4" fill="blue"/>
    <circle cx="668" cy="230" r="4" fill="blue"/>
    <circle cx="680" cy="230" r="4" fill="blue"/>
    <circle cx="692" cy="230" r="4" fill="blue"/>
    <circle cx="704" cy="230" r="4" fill="blue"/>
    <circle cx="716" cy="230" r="4" fill="blue"/>
    <circle cx="728" cy="230" r="4" fill="blue"/>
    <circle cx="500" cy="218" r="4" fill="blue"/>
    <circle cx="512" cy="218" r="4" fill="blue"/>
    <circle cx="524" cy="218" r="4" fill="blue"/>
    <circle cx="536" cy="218" r="4" fill="blue"/>
    <circle cx="548" cy="218" r="4" fill="blue"/>
    <circle cx="560" cy="218" r="4" fill="blue"/>
    <circle cx="572" cy="218" r="4" fill="blue"/>
    <circle cx="584" cy="218" r="4" fill="blue"/>
    <circle cx="596" cy="218" r="4" fill="blue"/>
    <circle cx="608" cy="218" r="4" fill="blue"/>
    <circle cx="620" cy="218" r="4" fill="blue"/>
    <circle cx="632" cy="218" r="4" fill="blue"/>
    <circle cx="644" cy="218" r="4" fill="blue"/>
    <circle cx="656" cy="218" r="4" fill="blue"/>
    <circle cx="668" cy="218" r="4" fill="blue"/>
    <circle cx="680" cy="218" r="4" fill="blue"/>
    <circle cx="692" cy="218" r="4" fill="blue"/>
    <circle cx="704" cy="218" r="4" fill="blue"/>
    <circle cx="716" cy="218" r="4" fill="blue"/>
    <circle cx="728" cy="218" r="4" fill="blue"/>
    <circle cx="500" cy="206" r="4" fill="blue"/>
    <circle cx="512" cy="206" r="4" fill="blue"/>
    <circle cx="524" cy="206" r="4" fill="blue"/>
    <circle cx="536" cy="206" r="4" fill="blue"/>
    <circle cx="548" cy="206" r="4" fill="blue"/>
    <circle cx="560" cy="206" r="4" fill="blue"/>
    <circle cx="572" cy="206" r="4" fill="blue"/>
    <circle cx="584" cy="206" r="4" fill="blue"/>
    <circle cx="596" cy="206" r="4" fill="blue"/>
    <circle cx="608" cy="206" r="4" fill="blue"/>
    <circle cx="620" cy="206" r="4" fill="blue"/>
    <circle cx="632" cy="206" r="4" fill="blue"/>
    <circle cx="644" cy="206" r="4" fill="blue"/>
    <circle cx="656" cy="206" r="4" fill="blue"/>
    <circle cx="668" cy="206" r="4" fill="blue"/>
    <circle cx="680" cy="206" r="4" fill="blue"/>
    <circle cx="692" cy="206" r="4" fill="blue"/>
    <circle cx="704" cy="206" r="4" fill="blue"/>
    <circle cx="716" cy="206" r="4" fill="blue"/>
    <circle cx="728" cy="206" r="4" fill="blue"/>
    <circle cx="500" cy="194" r="4" fill="blue"/>
    <circle cx="512" cy="194" r="4" fill="blue"/>
    <circle cx="524" cy="194" r="4" fill="blue"/>
    <circle cx="536" cy="194" r="4" fill="blue"/>
    <circle cx="548" cy="194" r="4" fill="blue"/>
    <circle cx="560" cy="194" r="4" fill="blue"/>
    <circle cx="572" cy="194" r="4" fill="blue"/>
    <circle cx="584" cy="194" r="4" fill="blue"/>
    <circle cx="596" cy="194" r="4" fill="blue"/>
    <circle cx="608" cy="194" r="4" fill="blue"/>
    <circle cx="620" cy="194" r="4" fill="blue"/>
    <circle cx="632" cy="194" r="4" fill="blue"/>
    <circle cx="644" cy="194" r="4" fill="blue"/>
    <circle cx="656" cy="194" r="4" fill="blue"/>
    <circle cx="668" cy="194" r="4" fill="blue"/>
    <circle cx="680" cy="194" r="4" fill="blue"/>
    <circle cx="692" cy="194" r="4" fill="blue"/>
    <circle cx="704" cy="194" r="4" fill="blue"/>
    <circle cx="716" cy="194" r="4" fill="blue"/>
    <circle cx="728" cy="194" r="4" fill="blue"/>
    <circle cx="500" cy="182" r="4" fill="blue"/>
    <circle cx="512" cy="182" r="4" fill="blue"/>
    <circle cx="524" cy="182" r="4" fill="blue"/>
    <circle cx="536" cy="182" r="4" fill="blue"/>
    <circle cx="548" cy="182" r="4" fill="blue"/>
    <circle cx="560" cy="182" r="4" fill="blue"/>
    <circle cx="572" cy="182" r="4" fill="blue"/>
    <circle cx="584" cy="182" r="4" fill="blue"/>
    <circle cx="596" cy="182" r="4" fill="blue"/>
    <circle cx="608" cy="182" r="4" fill="blue"/>
    <circle cx="620" cy="182" r="4" fill="blue"/>
    <circle cx="632" cy="182" r="4" fill="blue"/>
    <circle cx="644" cy="182" r="4" fill="blue"/>
    <circle cx="656" cy="182" r="4" fill="blue"/>
    <circle cx="668" cy="182" r="4" fill="blue"/>
    <circle cx="680" cy="182" r="4" fill="blue"/>
    <circle cx="692" cy="182" r="4" fill="blue"/>
    <circle cx="704" cy="182" r="4" fill="blue"/>
    <circle cx="716" cy="182" r="4" fill="blue"/>
    <circle cx="728" cy="182" r="4" fill="blue"/>
    <circle cx="500" cy="170" r="4" fill="blue"/>
    <circle cx="512" cy="170" r="4" fill="blue"/>
    <circle cx="524" cy="170" r="4" fill="blue"/>
    <circle cx="536" cy="170" r="4" fill="blue"/>
    <circle cx="548" cy="170" r="4" fill="blue"/>
    <circle cx="560" cy="170" r="4" fill="blue"/>
    <circle cx="572" cy="170" r="4" fill="blue"/>
    <circle cx="584" cy="170" r="4" fill="blue"/>
    <circle cx="596" cy="170" r="4" fill="blue"/>
    <circle cx="608" cy="170" r="4" fill="blue"/>
    <circle cx="620" cy="170" r="4" fill="blue"/>
    <circle cx="632" cy="170" r="4" fill="blue"/>
    <circle cx="644" cy="170" r="4" fill="blue"/>
    <circle cx="656" cy="170" r="4" fill="blue"/>
    <circle cx="668" cy="170" r="4" fill="blue"/>
    <circle cx="680" cy="170" r="4" fill="blue"/>
    <circle cx="692" cy="170" r="4" fill="blue"/>
    <circle cx="704" cy="170" r="4" fill="blue"/>
    <circle cx="716" cy="170" r="4" fill="blue"/>
    <circle cx="728" cy="170" r="4" fill="blue"/>
    <circle cx="500" cy="158" r="4" fill="blue"/>
    <circle cx="512" cy="158" r="4" fill="blue"/>
    <circle cx="524" cy="158" r="4" fill="blue"/>
    <circle cx="536" cy="158" r="4" fill="blue"/>
    <circle cx="548" cy="158" r="4" fill="blue"/>
    <circle cx="560" cy="158" r="4" fill="blue"/>
    <circle cx="572" cy="158" r="4" fill="blue"/>
    <circle cx="584" cy="158" r="4" fill="blue"/>
    <circle cx="596" cy="158" r="4" fill="blue"/>
    <circle cx="608" cy="158" r="4" fill="blue"/>
    <circle cx="620" cy="158" r="4" fill="blue"/>
    <circle cx="632" cy="158" r="4" fill="blue"/>
    <circle cx="644" cy="158" r="4" fill="blue"/>
    <circle cx="656" cy="158" r="4" fill="blue"/>
    <circle cx="668" cy="158" r="4" fill="blue"/>
    <circle cx="680" cy="158" r="4" fill="blue"/>
    <circle cx="692" cy="158" r="4" fill="blue"/>
    <circle cx="704" cy="158" r="4" fill="blue"/>
    <circle cx="716" cy="158" r="4" fill="blue"/>
    <circle cx="728" cy="158" r="4" fill="blue"/>
    <circle cx="500" cy="146" r="4" fill="blue"/>
    <circle cx="512" cy="146" r="4" fill="blue"/>
    <circle cx="524" cy="146" r="4" fill="blue"/>
    <circle cx="536" cy="146" r="4" fill="blue"/>
    <circle cx="548" cy="146" r="4" fill="blue"/>
    <circle cx="560" cy="146" r="4" fill="blue"/>
    <circle cx="572" cy="146" r="4" fill="blue"/>
    <circle cx="584" cy="146" r="4" fill="blue"/>
    <circle cx="596" cy="146" r="4" fill="blue"/>
    <circle cx="608" cy="146" r="4" fill="blue"/>
    <circle cx="620" cy="146" r="4" fill="blue"/>
    <circle cx="632" cy="146" r="4" fill="blue"/>
    <circle cx="644" cy="146" r="4" fill="blue"/>
    <circle cx="656" cy="146" r="4" fill="blue"/>
    <circle cx="668" cy="146" r="4" fill="blue"/>
    <circle cx="680" cy="146" r="4" fill="blue"/>
    <circle cx="692" cy="146" r="4" fill="blue"/>
    <circle cx="704" cy="146" r="4" fill="blue"/>
    <circle cx="716" cy="146" r="4" fill="blue"/>
    <circle cx="728" cy="146" r="4" fill="blue"/>
    <circle cx="500" cy="134" r="4" fill="blue"/>
    <circle cx="512" cy="134" r="4" fill="blue"/>
    <circle cx="524" cy="134" r="4" fill="blue"/>
    <circle cx="536" cy="134" r="4" fill="blue"/>
    <circle cx="548" cy="134" r="4" fill="blue"/>
    <circle cx="560" cy="134" r="4" fill="blue"/>
    <circle cx="572" cy="134" r="4" fill="blue"/>
    <circle cx="584" cy="134" r="4" fill="blue"/>
    <circle cx="596" cy="134" r="4" fill="blue"/>
    <circle cx="608" cy="134" r="4" fill="blue"/>
    <circle cx="620" cy="134" r="4" fill="blue"/>
    <circle cx="632" cy="134" r="4" fill="blue"/>
    <circle cx="644" cy="134" r="4" fill="blue"/>
    <circle cx="656" cy="134" r="4" fill="blue"/>
    <circle cx="668" cy="134" r="4" fill="blue"/>
    <circle cx="680" cy="134" r="4" fill="blue"/>
    <circle cx="692" cy="134" r="4" fill="blue"/>
    <circle cx="704" cy="134" r="4" fill="blue"/>
    <circle cx="716" cy="134" r="4" fill="blue"/>
    <circle cx="728" cy="134" r="4" fill="blue"/>
    <circle cx="500" cy="122" r="4" fill="black"/>
    <circle cx="512" cy="122" r="4" fill="black"/>
    <circle cx="524" cy="122" r="4" fill="black"/>
    <circle cx="536" cy="122" r="4" fill="black"/>
    <circle cx="548" cy="122" r="4" fill="black"/>
    <circle cx="560" cy="122" r="4" fill="black"/>
    <circle cx="572" cy="122" r="4" fill="black"/>
    <circle cx="584" cy="122" r="4" fill="black"/>
    <circle cx="596" cy="122" r="4" fill="black"/>
    <circle cx="608" cy="122" r="4" fill="black"/>
    <circle cx="620" cy="122" r="4" fill="black"/>
    <circle cx="632" cy="122" r="4" fill="black"/>
    <circle cx="644" cy="122" r="4" fill="black"/>
    <circle cx="656" cy="122" r="4" fill="black"/>
    <circle cx="668" cy="122" r="4" fill="black"/>
    <circle cx="680" cy="122" r="4" fill="black"/>
    <circle cx="692" cy="122" r="4" fill="black"/>
    <circle cx="704" cy="122" r="4" fill="black"/>
    <circle cx="716" cy="122" r="4" fill="black"/>
    <circle cx="728" cy="122" r="4" fill="black"/>
    <circle cx="500" cy="110" r="4" fill="black"/>
    <circle cx="512" cy="110" r="4" fill="black"/>
    <circle cx="524" cy="110" r="4" fill="black"/>
    <circle cx="536" cy="110" r="4" fill="black"/>
    <circle cx="548" cy="110" r="4" fill="black"/>
    <circle cx="560" cy="110" r="4" fill="black"/>
    <circle cx="572" cy="110" r="4" fill="black"/>
    <circle cx="584" cy="110" r="4" fill="black"/>
    <circle cx="596" cy="110" r="4" fill="black"/>
    <circle cx="608" cy="110" r="4" fill="black"/>
    <circle cx="620" cy="110" r="4" fill="black"/>
    <circle cx="632" cy="110" r="4" fill="black"/>
    <circle cx="644" cy="110" r="4" fill="black"/>
    <circle cx="656" cy="110" r="4" fill="black"/>
    <circle cx="668" cy="110" r="4" fill="black"/>
    <circle cx="680" cy="110" r="4" fill="black"/>
    <circle cx="692" cy="110" r="4" fill="black"/>
    <circle cx="704" cy="110" r="4" fill="black"/>
    <circle cx="716" cy="110" r="4" fill="black"/>
    <circle cx="728" cy="110" r="4" fill="black"/>
    <circle cx="500" cy="98" r="4" fill="black"/>
    <circle cx="512" cy="98" r="4" fill="black"/>
    <circle cx="524" cy="98" r="4" fill="black"/>
    <circle cx="536" cy="98" r="4" fill="black"/>
    <circle cx="548" cy="98" r="4" fill="black"/>
    <circle cx="560" cy="98" r="4" fill="black"/>
    <circle cx="572" cy="98" r="4" fill="black"/>
    <circle cx="584" cy="98" r="4" fill="black"/>
    <circle cx="596" cy="98" r="4" fill="black"/>
    <circle cx="608" cy="98" r="4" fill="black"/>
    <circle cx="620" cy="98" r="4" fill="black"/>
    <circle cx="632" cy="98" r="4" fill="black"/>
    <circle cx="644" cy="98" r="4" fill="black"/>
    <circle cx="656" cy="98" r="4" fill="black"/>
    <circle cx="668" cy="98" r="4" fill="black"/>
    <circle cx="680" cy="98" r="4" fill="black"/>
    <circle cx="692" cy="98" r="4" fill="black"/>
    <circle cx="704" cy="98" r="4" fill="black"/>
    <circle cx="716" cy="98" r="4" fill="black"/>
    <circle cx="728" cy="98" r="4" fill="black"/>
    <circle cx="500" cy="86" r="4" fill="black"/>
    <circle cx="512" cy="86" r="4" fill="black"/>
    <circle cx="524" cy="86" r="4" fill="black"/>
    <circle cx="536" cy="86" r="4" fill="black"/>
    <circle cx="548" cy="86" r="4" fill="black"/>
    <circle cx="560" cy="86" r="4" fill="black"/>
    <circle cx="572" cy="86" r="4" fill="black"/>
    <circle cx="584" cy="86" r="4" fill="black"/>
    <circle cx="596" cy="86" r="4" fill="black"/>
    <circle cx="608" cy="86" r="4" fill="black"/>
    <circle cx="620" cy="86" r="4" fill="black"/>
    <circle cx="632" cy="86" r="4" fill="black"/>
    <circle cx="644" cy="86" r="4" fill="black"/>
    <circle cx="656" cy="86" r="4" fill="black"/>
    <circle cx="668" cy="86" r="4" fill="black"/>
    <circle cx="680" cy="86" r="4" fill="black"/>
    <circle cx="692" cy="86" r="4" fill="black"/>
    <circle cx="704" cy="86" r="4" fill="black"/>
    <circle cx="716" cy="86" r="4" fill="black"/>
    <circle cx="728" cy="86" r="4" fill="black"/>
</svg>
