<svg width="734" height="400" xmlns="http://www.w3.org/2000/svg">
    <circle cx="0" cy="400" r="400" fill="rgba(55, 55, 55, .1)" stroke="black" stroke-width="2"/>
    <rect x="0" y="0" width="400" height="400" fill="none" stroke="black" stroke-width="2"/>

    <circle cx="131" cy="267" r="4" fill="blue"/>
    <circle cx="6" cy="296" r="4" fill="blue"/>
    <circle cx="131" cy="84" r="4" fill="blue"/>
    <circle cx="219" cy="14" r="4" fill="black"/>
    <circle cx="383" cy="276" r="4" fill="black"/>
    <circle cx="312" cy="349" r="4" fill="blue"/>
    <circle cx="45" cy="347" r="4" fill="blue"/>
    <circle cx="232" cy="18" r="4" fill="black"/>
    <circle cx="336" cy="396" r="4" fill="blue"/>
    <circle cx="13" cy="340" r="4" fill="blue"/>
    <circle cx="33" cy="25" r="4" fill="blue"/>
    <circle cx="128" cy="314" r="4" fill="blue"/>
    <circle cx="126" cy="90" r="4" fill="blue"/>
    <circle cx="249" cy="377" r="4" fill="blue"/>
    <circle cx="15" cy="398" r="4" fill="blue"/>
    <circle cx="228" cy="137" r="4" fill="blue"/>
    <circle cx="276" cy="73" r="4" fill="black"/>
    <circle cx="195" cy="185" r="4" fill="blue"/>
    <circle cx="223" cy="210" r="4" fill="blue"/>
    <circle cx="349" cy="337" r="4" fill="blue"/>
    <circle cx="44" cy="305" r="4" fill="blue"/>
    <circle cx="264" cy="225" r="4" fill="blue"/>
    <circle cx="103" cy="207" r="4" fill="blue"/>
    <circle cx="337" cy="265" r="4" fill="blue"/>
    <circle cx="38" cy="219" r="4" fill="blue"/>
    <circle cx="295" cy="319" r="4" fill="blue"/>
    <circle cx="3" cy="323" r="4" fill="blue"/>
    <circle cx="319" cy="320" r="4" fill="blue"/>
    <circle cx="317" cy="230" r="4" fill="blue"/>
    <circle cx="54" cy="59" r="4" fill="blue"/>
    <circle cx="144" cy="5" r="4" fill="black"/>
    <circle cx="83" cy="83" r="4" fill="blue"/>
    <circle cx="273" cy="38" r="4" fill="black"/>
    <circle cx="8" cy="333" r="4" fill="blue"/>
    <circle cx="352" cy="189" r="4" fill="black"/>
    <circle cx="181" cy="132" r="4" fill="blue"/>
    <circle cx="317" cy="386" r="4" fill="blue"/>
    <circle cx="34" cy="35" r="4" fill="blue"/>
    <circle cx="186" cy="77" r="4" fill="blue"/>
    <circle cx="85" cy="237" r="4" fill="blue"/>
    <circle cx="340" cy="330" r="4" fill="blue"/>
    <circle cx="158" cy="327" r="4" fill="blue"/>
    <circle cx="357" cy="198" r="4" fill="black"/>
    <circle cx="114" cy="103" r="4" fill="blue"/>
    <circle cx="302" cy="206" r="4" fill="blue"/>
    <circle cx="205" cy="92" r="4" fill="blue"/>
    <circle cx="295" cy="131" r="4" fill="blue"/>
    <circle cx="62" cy="32" r="4" fill="blue"/>
    <circle cx="277" cy="153" r="4" fill="blue"/>
    <circle cx="50" cy="126" r="4" fill="blue"/>
    <circle cx="150" cy="27" r="4" fill="black"/>
    <circle cx="10" cy="257" r="4" fill="blue"/>
    <circle cx="212" cy="28" r="4" fill="black"/>
    <circle cx="62" cy="361" r="4" fill="blue"/>
    <circle cx="287" cy="144" r="4" fill="blue"/>
    <circle cx="234" cy="309" r="4" fill="blue"/>
    <circle cx="320" cy="64" r="4" fill="black"/>
    <circle cx="115" cy="96" r="4" fill="blue"/>
    <circle cx="333" cy="291" r="4" fill="blue"/>
    <circle cx="399" cy="280" r="4" fill="black"/>
    <circle cx="223" cy="41" r="4" fill="black"/>
    <circle cx="197" cy="399" r="4" fill="blue"/>
    <circle cx="122" cy="84" r="4" fill="blue"/>
    <circle cx="53" cy="49" r="4" fill="blue"/>
    <circle cx="102" cy="193" r="4" fill="blue"/>
    <circle cx="33" cy="286" r="4" fill="blue"/>
    <circle cx="202" cy="136" r="4" fill="blue"/>
    <circle cx="309" cy="181" r="4" fill="blue"/>
    <circle cx="27" cy="249" r="4" fill="blue"/>
    <circle cx="26" cy="194" r="4" fill="blue"/>
    <circle cx="202" cy="228" r="4" fill="blue"/>
    <circle cx="59" cy="161" r="4" fill="blue"/>
    <circle cx="324" cy="37" r="4" fill="black"/>
    <circle cx="51" cy="287" r="4" fill="blue"/>
    <circle cx="211" cy="170" r="4" fill="blue"/>
    <circle cx="181" cy="179" r="4" fill="blue"/>
    <circle cx="363" cy="355" r="4" fill="blue"/>
    <circle cx="196" cy="132" r="4" fill="blue"/>
    <circle cx="136" cy="61" r="4" fill="blue"/>
    <circle cx="217" cy="295" r="4" fill="blue"/>
    <circle cx="300" cy="128" r="4" fill="black"/>
    <circle cx="193" cy="390" r="4" fill="blue"/>
    <circle cx="231" cy="239" r="4" fill="blue"/>
    <circle cx="134" cy="310" r="4" fill="blue"/>
    <circle cx="122" cy="114" r="4" fill="blue"/>
    <circle cx="221" cy="334" r="4" fill="blue"/>
    <circle cx="86" cy="7" r="4" fill="black"/>
    <circle cx="209" cy="398" r="4" fill="blue"/>
    <circle cx="250" cy="226" r="4" fill="blue"/>
    <circle cx="37" cy="193" r="4" fill="blue"/>
    <circle cx="65" cy="373" r="4" fill="blue"/>
    <circle cx="6" cy="172" r="4" fill="blue"/>
    <circle cx="338" cy="322" r="4" fill="blue"/>
    <circle cx="259" cy="8" r="4" fill="black"/>
    <circle cx="242" cy="222" r="4" fill="blue"/>
    <circle cx="299" cy="164" r="4" fill="blue"/>
    <circle cx="198" cy="151" r="4" fill="blue"/>
    <circle cx="278" cy="322" r="4" fill="blue"/>
    <circle cx="200" cy="53" r="4" fill="black"/>
    <circle cx="30" cy="182" r="4" fill="blue"/>
    <circle cx="170" cy="378" r="4" fill="blue"/>
    <circle cx="197" cy="340" r="4" fill="blue"/>
    <circle cx="314" cy="188" r="4" fill="blue"/>
    <circle cx="339" cy="242" r="4" fill="blue"/>
    <circle cx="350" cy="168" r="4" fill="black"/>
    <circle cx="381" cy="174" r="4" fill="black"/>
    <circle cx="219" cy="134" r="4" fill="blue"/>
    <circle cx="273" cy="133" r="4" fill="blue"/>
    <circle cx="324" cy="267" r="4" fill="blue"/>
    <circle cx="280" cy="307" r="4" fill="blue"/>
    <circle cx="9" cy="231" r="4" fill="blue"/>
    <circle cx="258" cy="344" r="4" fill="blue"/>
    <circle cx="348" cy="391" r="4" fill="blue"/>
    <circle cx="28" cy="198" r="4" fill="blue"/>
    <circle cx="103" cy="278" r="4" fill="blue"/>
    <circle cx="138" cy="389" r="4" fill="blue"/>
    <circle cx="57" cy="351" r="4" fill="blue"/>
    <circle cx="5" cy="278" r="4" fill="blue"/>
    <circle cx="339" cy="84" r="4" fill="black"/>
    <circle cx="251" cy="248" r="4" fill="blue"/>
    <circle cx="375" cy="34" r="4" fill="black"/>
    <circle cx="26" cy="174" r="4" fill="blue"/>
    <circle cx="146" cy="311" r="4" fill="blue"/>
    <circle cx="222" cy="195" r="4" fill="blue"/>
    <circle cx="177" cy="163" r="4" fill="blue"/>
    <circle cx="207" cy="242" r="4" fill="blue"/>
    <circle cx="287" cy="253" r="4" fill="blue"/>
    <circle cx="395" cy="346" r="4" fill="blue"/>
    <circle cx="283" cy="246" r="4" fill="blue"/>
    <circle cx="261" cy="256" r="4" fill="blue"/>
    <circle cx="39" cy="297" r="4" fill="blue"/>
    <circle cx="308" cy="376" r="4" fill="blue"/>
    <circle cx="225" cy="189" r="4" fill="blue"/>
    <circle cx="289" cy="273" r="4" fill="blue"/>
    <circle cx="120" cy="55" r="4" fill="blue"/>
    <circle cx="165" cy="202" r="4" fill="blue"/>
    <circle cx="64" cy="297" r="4" fill="blue"/>
    <circle cx="18" cy="39" r="4" fill="blue"/>
    <circle cx="222" cy="49" r="4" fill="black"/>
    <circle cx="75" cy="130" r="4" fill="blue"/>
    <circle cx="391" cy="290" r="4" fill="black"/>
    <circle cx="314" cy="146" r="4" fill="black"/>
    <circle cx="254" cy="334" r="4" fill="blue"/>
    <circle cx="99" cy="276" r="4" fill="blue"/>
    <circle cx="74" cy="158" r="4" fill="blue"/>
    <circle cx="59" cy="294" r="4" fill="blue"/>
    <circle cx="131" cy="96" r="4" fill="blue"/>
    <circle cx="365" cy="32" r="4" fill="black"/>
    <circle cx="141" cy="148" r="4" fill="blue"/>
    <circle cx="276" cy="395" r="4" fill="blue"/>
    <circle cx="215" cy="152" r="4" fill="blue"/>
    <circle cx="45" cy="227" r="4" fill="blue"/>
    <circle cx="254" cy="109" r="4" fill="blue"/>
    <circle cx="96" cy="54" r="4" fill="blue"/>
    <circle cx="287" cy="312" r="4" fill="blue"/>
    <circle cx="145" cy="99" r="4" fill="blue"/>
    <circle cx="39" cy="118" r="4" fill="blue"/>
    <circle cx="368" cy="78" r="4" fill="black"/>
    <circle cx="312" cy="70" r="4" fill="black"/>
    <circle cx="313" cy="42" r="4" fill="black"/>
    <circle cx="89" cy="5" r="4" fill="black"/>
    <circle cx="310" cy="320" r="4" fill="blue"/>
    <circle cx="178" cy="13" r="4" fill="black"/>
    <circle cx="63" cy="108" r="4" fill="blue"/>
    <circle cx="250" cy="154" r="4" fill="blue"/>
    <circle cx="227" cy="251" r="4" fill="blue"/>
    <circle cx="203" cy="163" r="4" fill="blue"/>
    <circle cx="318" cy="368" r="4" fill="blue"/>
    <circle cx="290" cy="336" r="4" fill="blue"/>
    <circle cx="349" cy="290" r="4" fill="blue"/>
    <circle cx="327" cy="192" r="4" fill="blue"/>
    <circle cx="127" cy="283" r="4" fill="blue"/>
    <circle cx="341" cy="55" r="4" fill="black"/>
    <circle cx="235" cy="4" r="4" fill="black"/>
    <circle cx="362" cy="163" r="4" fill="black"/>
    <circle cx="340" cy="207" r="4" fill="blue"/>
    <circle cx="214" cy="7" r="4" fill="black"/>
    <circle cx="33" cy="377" r="4" fill="blue"/>
    <circle cx="12" cy="2" r="4" fill="blue"/>
    <circle cx="269" cy="324" r="4" fill="blue"/>
    <circle cx="354" cy="3" r="4" fill="black"/>
    <circle cx="55" cy="358" r="4" fill="blue"/>
    <circle cx="179" cy="34" r="4" fill="black"/>
    <circle cx="348" cy="214" r="4" fill="blue"/>
    <circle cx="19" cy="107" r="4" fill="blue"/>
    <circle cx="358" cy="360" r="4" fill="blue"/>
    <circle cx="122" cy="177" r="4" fill="blue"/>
    <circle cx="348" cy="134" r="4" fill="black"/>
    <circle cx="322" cy="135" r="4" fill="black"/>
    <circle cx="374" cy="66" r="4" fill="black"/>
    <circle cx="29" cy="241" r="4" fill="blue"/>
    <circle cx="321" cy="216" r="4" fill="blue"/>
    <circle cx="71" cy="126" r="4" fill="blue"/>
    <circle cx="27" cy="108" r="4" fill="blue"/>
    <circle cx="107" cy="146" r="4" fill="blue"/>
    <circle cx="222" cy="302" r="4" fill="blue"/>
    <circle cx="75" cy="294" r="4" fill="blue"/>
    <circle cx="361" cy="366" r="4" fill="blue"/>
    <circle cx="268" cy="176" r="4" fill="blue"/>
    <circle cx="287" cy="217" r="4" fill="blue"/>
    <circle cx="32" cy="101" r="4" fill="blue"/>
    <circle cx="349" cy="127" r="4" fill="black"/>
    <circle cx="247" cy="309" r="4" fill="blue"/>
    <circle cx="260" cy="266" r="4" fill="blue"/>
    <circle cx="376" cy="178" r="4" fill="black"/>
    <circle cx="106" cy="297" r="4" fill="blue"/>
    <circle cx="333" cy="252" r="4" fill="blue"/>
    <circle cx="84" cy="45" r="4" fill="blue"/>
    <circle cx="375" cy="112" r="4" fill="black"/>
    <circle cx="51" cy="279" r="4" fill="blue"/>
    <circle cx="354" cy="240" r="4" fill="blue"/>
    <circle cx="67" cy="102" r="4" fill="blue"/>
    <circle cx="58" cy="16" r="4" fill="blue"/>
    <circle cx="240" cy="263" r="4" fill="blue"/>
    <circle cx="266" cy="105" r="4" fill="blue"/>
    <circle cx="235" cy="92" r="4" fill="blue"/>
    <circle cx="6" cy="74" r="4" fill="blue"/>
    <circle cx="182" cy="269" r="4" fill="blue"/>
    <circle cx="75" cy="263" r="4" fill="blue"/>
    <circle cx="366" cy="121" r="4" fill="black"/>
    <circle cx="64" cy="340" r="4" fill="blue"/>
    <circle cx="101" cy="298" r="4" fill="blue"/>
    <circle cx="12" cy="180" r="4" fill="blue"/>
    <circle cx="47" cy="129" r="4" fill="blue"/>
    <circle cx="74" cy="15" r="4" fill="blue"/>
    <circle cx="394" cy="13" r="4" fill="black"/>
    <circle cx="316" cy="28" r="4" fill="black"/>
    <circle cx="361" cy="185" r="4" fill="black"/>
    <circle cx="162" cy="392" r="4" fill="blue"/>
    <circle cx="308" cy="58" r="4" fill="black"/>
    <circle cx="217" cy="379" r="4" fill="blue"/>
    <circle cx="75" cy="365" r="4" fill="blue"/>
    <circle cx="151" cy="65" r="4" fill="blue"/>
    <circle cx="44" cy="65" r="4" fill="blue"/>
    <circle cx="343" cy="234" r="4" fill="blue"/>
    <circle cx="104" cy="353" r="4" fill="blue"/>
    <circle cx="79" cy="327" r="4" fill="blue"/>
    <circle cx="37" cy="34" r="4" fill="blue"/>
    <circle cx="315" cy="104" r="4" fill="black"/>
    <circle cx="122" cy="6" r="4" fill="black"/>
    <circle cx="226" cy="39" r="4" fill="black"/>
    <circle cx="280" cy="247" r="4" fill="blue"/>
    <circle cx="179" cy="222" r="4" fill="blue"/>
    <circle cx="5" cy="252" r="4" fill="blue"/>
    <circle cx="17" cy="226" r="4" fill="blue"/>
    <circle cx="34" cy="51" r="4" fill="blue"/>
    <circle cx="27" cy="112" r="4" fill="blue"/>
    <circle cx="340" cy="81" r="4" fill="black"/>
    <circle cx="127" cy="93" r="4" fill="blue"/>
    <circle cx="127" cy="254" r="4" fill="blue"/>
    <circle cx="229" cy="222" r="4" fill="blue"/>
    <circle cx="104" cy="112" r="4" fill="blue"/>
    <circle cx="68" cy="94" r="4" fill="blue"/>
    <circle cx="256" cy="104" r="4" fill="blue"/>
    <circle cx="194" cy="44" r="4" fill="black"/>
    <circle cx="292" cy="318" r="4" fill="blue"/>
    <circle cx="262" cy="121" r="4" fill="blue"/>
    <circle cx="190" cy="291" r="4" fill="blue"/>
    <circle cx="216" cy="263" r="4" fill="blue"/>
    <circle cx="28" cy="28" r="4" fill="blue"/>
    <circle cx="337" cy="349" r="4" fill="blue"/>
    <circle cx="234" cy="388" r="4" fill="blue"/>
    <circle cx="44" cy="297" r="4" fill="blue"/>
    <circle cx="266" cy="187" r="4" fill="blue"/>
    <circle cx="188" cy="376" r="4" fill="blue"/>
    <circle cx="89" cy="336" r="4" fill="blue"/>
    <circle cx="64" cy="199" r="4" fill="blue"/>
    <circle cx="31" cy="133" r="4" fill="blue"/>
    <circle cx="49" cy="272" r="4" fill="blue"/>
    <circle cx="41" cy="39" r="4" fill="blue"/>
    <circle cx="284" cy="248" r="4" fill="blue"/>
    <circle cx="284" cy="157" r="4" fill="blue"/>
    <circle cx="180" cy="364" r="4" fill="blue"/>
    <circle cx="84" cy="366" r="4" fill="blue"/>
    <circle cx="36" cy="224" r="4" fill="blue"/>
    <circle cx="264" cy="298" r="4" fill="blue"/>
    <circle cx="121" cy="175" r="4" fill="blue"/>
    <circle cx="112" cy="356" r="4" fill="blue"/>
    <circle cx="5" cy="69" r="4" fill="blue"/>
    <circle cx="143" cy="205" r="4" fill="blue"/>
    <circle cx="361" cy="370" r="4" fill="blue"/>
    <circle cx="129" cy="35" r="4" fill="blue"/>
    <circle cx="338" cy="311" r="4" fill="blue"/>
    <circle cx="257" cy="208" r="4" fill="blue"/>
    <circle cx="254" cy="364" r="4" fill="blue"/>
    <circle cx="271" cy="182" r="4" fill="blue"/>
    <circle cx="247" cy="170" r="4" fill="blue"/>
    <circle cx="258" cy="232" r="4" fill="blue"/>
    <circle cx="48" cy="46" r="4" fill="blue"/>
    <circle cx="293" cy="202" r="4" fill="blue"/>
    <circle cx="324" cy="39" r="4" fill="black"/>
    <circle cx="172" cy="184" r="4" fill="blue"/>
    <circle cx="316" cy="246" r="4" fill="blue"/>
    <circle cx="308" cy="116" r="4" fill="black"/>
    <circle cx="219" cy="373" r="4" fill="blue"/>
    <circle cx="227" cy="198" r="4" fill="blue"/>
    <circle cx="225" cy="188" r="4" fill="blue"/>
    <circle cx="225" cy="397" r="4" fill="blue"/>
    <circle cx="115" cy="52" r="4" fill="blue"/>
    <circle cx="381" cy="205" r="4" fill="black"/>
    <circle cx="254" cy="2" r="4" fill="black"/>
    <circle cx="39" cy="115" r="4" fill="blue"/>
    <circle cx="261" cy="244" r="4" fill="blue"/>
    <circle cx="245" cy="51" r="4" fill="black"/>
    <circle cx="191" cy="267" r="4" fill="blue"/>
    <circle cx="147" cy="91" r="4" fill="blue"/>
    <circle cx="306" cy="220" r="4" fill="blue"/>
    <circle cx="340" cy="61" r="4" fill="black"/>
    <circle cx="171" cy="39" r="4" fill="blue"/>
    <circle cx="33" cy="372" r="4" fill="blue"/>
    <circle cx="170" cy="77" r="4" fill="blue"/>
    <circle cx="394" cy="72" r="4" fill="black"/>
    <circle cx="292" cy="241" r="4" fill="blue"/>
    <circle cx="165" cy="268" r="4" fill="blue"/>
    <circle cx="347" cy="303" r="4" fill="blue"/>
    <circle cx="393" cy="280" r="4" fill="black"/>
    <circle cx="233" cy="395" r="4" fill="blue"/>
    <circle cx="342" cy="374" r="4" fill="blue"/>
    <circle cx="180" cy="367" r="4" fill="blue"/>
    <circle cx="183" cy="317" r="4" fill="blue"/>
    <circle cx="29" cy="31" r="4" fill="blue"/>
    <circle cx="86" cy="298" r="4" fill="blue"/>
    <circle cx="213" cy="108" r="4" fill="blue"/>
    <circle cx="143" cy="172" r="4" fill="blue"/>
    <circle cx="45" cy="192" r="4" fill="blue"/>
    <circle cx="214" cy="244" r="4" fill="blue"/>
    <circle cx="288" cy="343" r="4" fill="blue"/>
    <circle cx="308" cy="165" r="4" fill="blue"/>
    <circle cx="173" cy="113" r="4" fill="blue"/>
    <circle cx="249" cy="340" r="4" fill="blue"/>
    <circle cx="59" cy="290" r="4" fill="blue"/>
    <circle cx="34" cy="142" r="4" fill="blue"/>
    <circle cx="21" cy="344" r="4" fill="blue"/>
    <circle cx="55" cy="91" r="4" fill="blue"/>
    <circle cx="289" cy="189" r="4" fill="blue"/>
    <circle cx="224" cy="152" r="4" fill="blue"/>
    <circle cx="161" cy="195" r="4" fill="blue"/>
    <circle cx="384" cy="180" r="4" fill="black"/>
    <circle cx="74" cy="150" r="4" fill="blue"/>
    <circle cx="9" cy="317" r="4" fill="blue"/>
    <circle cx="239" cy="26" r="4" fill="black"/>
    <circle cx="387" cy="327" r="4" fill="blue"/>
    <circle cx="280" cy="4" r="4" fill="black"/>
    <circle cx="375" cy="206" r="4" fill="black"/>
    <circle cx="88" cy="379" r="4" fill="blue"/>
    <circle cx="10" cy="111" r="4" fill="blue"/>
    <circle cx="197" cy="312" r="4" fill="blue"/>
    <circle cx="258" cy="353" r="4" fill="blue"/>
    <circle cx="268" cy="142" r="4" fill="blue"/>
    <circle cx="74" cy="80" r="4" fill="blue"/>
    <circle cx="349" cy="361" r="4" fill="blue"/>
    <circle cx="261" cy="267" r="4" fill="blue"/>
    <circle cx="301" cy="273" r="4" fill="blue"/>
    <circle cx="246" cy="3" r="4" fill="black"/>
    <circle cx="189" cy="148" r="4" fill="blue"/>
    <circle cx="322" cy="120" r="4" fill="black"/>
    <circle cx="63" cy="230" r="4" fill="blue"/>
    <circle cx="260" cy="377" r="4" fill="blue"/>
    <circle cx="182" cy="271" r="4" fill="blue"/>
    <circle cx="155" cy="179" r="4" fill="blue"/>
    <circle cx="136" cy="302" r="4" fill="blue"/>
    <circle cx="366" cy="345" r="4" fill="blue"/>
    <circle cx="310" cy="84" r="4" fill="black"/>
    <circle cx="266" cy="67" r="4" fill="black"/>
    <circle cx="95" cy="391" r="4" fill="blue"/>
    <circle cx="387" cy="64" r="4" fill="black"/>
    <circle cx="315" cy="327" r="4" fill="blue"/>
    <circle cx="356" cy="241" r="4" fill="blue"/>
    <circle cx="151" cy="15" r="4" fill="black"/>
    <circle cx="33" cy="34" r="4" fill="blue"/>
    <circle cx="56" cy="31" r="4" fill="blue"/>
    <circle cx="192" cy="211" r="4" fill="blue"/>
    <circle cx="308" cy="345" r="4" fill="blue"/>
    <circle cx="236" cy="169" r="4" fill="blue"/>
    <circle cx="73" cy="302" r="4" fill="blue"/>
    <circle cx="362" cy="206" r="4" fill="black"/>
    <circle cx="292" cy="281" r="4" fill="blue"/>
    <circle cx="279" cy="395" r="4" fill="blue"/>
    <circle cx="228" cy="199" r="4" fill="blue"/>
    <circle cx="12" cy="124" r="4" fill="blue"/>
    <circle cx="240" cy="138" r="4" fill="blue"/>
    <circle cx="369" cy="385" r="4" fill="blue"/>
    <circle cx="162" cy="26" r="4" fill="black"/>
    <circle cx="337" cy="195" r="4" fill="blue"/>
    <circle cx="51" cy="275" r="4" fill="blue"/>
    <circle cx="390" cy="322" r="4" fill="blue"/>
    <circle cx="139" cy="297" r="4" fill="blue"/>
    <circle cx="245" cy="87" r="4" fill="blue"/>
    <circle cx="74" cy="179" r="4" fill="blue"/>
    <circle cx="153" cy="22" r="4" fill="black"/>
    <circle cx="275" cy="243" r="4" fill="blue"/>
    <circle cx="373" cy="304" r="4" fill="blue"/>
    <circle cx="43" cy="187" r="4" fill="blue"/>
    <circle cx="179" cy="46" r="4" fill="blue"/>
    <circle cx="140" cy="86" r="4" fill="blue"/>
    <circle cx="235" cy="139" r="4" fill="blue"/>
    <circle cx="289" cy="383" r="4" fill="blue"/>
    <circle cx="171" cy="394" r="4" fill="blue"/>
    <circle cx="187" cy="99" r="4" fill="blue"/>
    <circle cx="74" cy="333" r="4" fill="blue"/>

    <circle cx="500" cy="314" r="4" fill="blue"/>
    <circle cx="512" cy="314" r="4" fill="blue"/>
    <circle cx="524" cy="314" r="4" fill="blue"/>
    <circle cx="536" cy="314" r="4" fill="blue"/>
    <circle cx="548" cy="314" r="4" fill="blue"/>
    <circle cx="560" cy="314" r="4" fill="blue"/>
    <circle cx="572" cy="314" r="4" fill="blue"/>
    <circle cx="584" cy="314" r="4" fill="blue"/>
    <circle cx="596" cy="314" r="4" fill="blue"/>
    <circle cx="608" cy="314" r="4" fill="blue"/>
    <circle cx="620" cy="314" r="4" fill="blue"/>
    <circle cx="632" cy="314" r="4" fill="blue"/>
    <circle cx="644" cy="314" r="4" fill="blue"/>
    <circle cx="656" cy="314" r="4" fill="blue"/>
    <circle cx="668" cy="314" r="4" fill="blue"/>
    <circle cx="680" cy="314" r="4" fill="blue"/>
    <circle cx="692" cy="314" r="4" fill="blue"/>
    <circle cx="704" cy="314" r="4" fill="blue"/>
    <circle cx="716" cy="314" r="4" fill="blue"/>
    <circle cx="728" cy="314" r="4" fill="blue"/>
    <circle cx="500" cy="302" r="4" fill="blue"/>
    <circle cx="512" cy="302" r="4" fill="blue"/>
    <circle cx="524" cy="302" r="4" fill="blue"/>
    <circle cx="536" cy="302" r="4" fill="blue"/>
    <circle cx="548" cy="302" r="4" fill="blue"/>
    <circle cx="560" cy="302" r="4" fill="blue"/>
    <circle cx="572" cy="302" r="4" fill="blue"/>
    <circle cx="584" cy="302" r="4" fill="blue"/>
    <circle cx="596" cy="302" r="4" fill="blue"/>
    <circle cx="608" cy="302" r="4" fill="blue"/>
    <circle cx="620" cy="302" r="4" fill="blue"/>
    <circle cx="632" cy="302" r="4" fill="blue"/>
    <circle cx="644" cy="302" r="4" fill="blue"/>
    <circle cx="656" cy="302" r="4" fill="blue"/>
    <circle cx="668" cy="302" r="4" fill="blue"/>
    <circle cx="680" cy="302" r="4" fill="blue"/>
    <circle cx="692" cy="302" r="4" fill="blue"/>
    <circle cx="704" cy="302" r="4" fill="blue"/>
    <circle cx="716" cy="302" r="4" fill="blue"/>
    <circle cx="728" cy="302" r="4" fill="blue"/>
    <circle cx="500" cy="290" r="4" fill="blue"/>
    <circle cx="512" cy="290" r="4" fill="blue"/>
    <circle cx="524" cy="290" r="4" fill="blue"/>
    <circle cx="536" cy="290" r="4" fill="blue"/>
    <circle cx="548" cy="290" r="4" fill="blue"/>
    <circle cx="560" cy="290" r="4" fill="blue"/>
    <circle cx="572" cy="290" r="4" fill="blue"/>
    <circle cx="584" cy="290" r="4" fill="blue"/>
    <circle cx="596" cy="290" r="4" fill="blue"/>
    <circle cx="608" cy="290" r="4" fill="blue"/>
    <circle cx="620" cy="290" r="4" fill="blue"/>
    <circle cx="632" cy="290" r="4" fill="blue"/>
    <circle cx="644" cy="290" r="4" fill="blue"/>
    <circle cx="656" cy="290" r="4" fill="blue"/>
    <circle cx="668" cy="290" r="4" fill="blue"/>
    <circle cx="680" cy="290" r="4" fill="blue"/>
    <circle cx="692" cy="290" r="4" fill="blue"/>
    <circle cx="704" cy="290" r="4" fill="blue"/>
    <circle cx="716" cy="290" r="4" fill="blue"/>
    <circle cx="728" cy="290" r="4" fill="blue"/>
    <circle cx="500" cy="278" r="4" fill="blue"/>
    <circle cx="512" cy="278" r="4" fill="blue"/>
    <circle cx="524" cy="278" r="4" fill="blue"/>
    <circle cx="536" cy="278" r="4" fill="blue"/>
    <circle cx="548" cy="278" r="4" fill="blue"/>
    <circle cx="560" cy="278" r="4" fill="blue"/>
    <circle cx="572" cy="278" r="4" fill="blue"/>
    <circle cx="584" cy="278" r="4" fill="blue"/>
    <circle cx="596" cy="278" r="4" fill="blue"/>
    <circle cx="608" cy="278" r="4" fill="blue"/>
    <circle cx="620" cy="278" r="4" fill="blue"/>
    <circle cx="632" cy="278" r="4" fill="blue"/>
    <circle cx="644" cy="278" r="4" fill="blue"/>
    <circle cx="656" cy="278" r="4" fill="blue"/>
    <circle cx="668" cy="278" r="4" fill="blue"/>
    <circle cx="680" cy="278" r="4" fill="blue"/>
    <circle cx="692" cy="278" r="4" fill="blue"/>
    <circle cx="704" cy="278" r="4" fill="blue"/>
    <circle cx="716" cy="278" r="4" fill="blue"/>
    <circle cx="728" cy="278" r="4" fill="blue"/>
    <circle cx="500" cy="266" r="4" fill="blue"/>
    <circle cx="512" cy="266" r="4" fill="blue"/>
    <circle cx="524" cy="266" r="4" fill="blue"/>
    <circle cx="536" cy="266" r="4" fill="blue"/>
    <circle cx="548" cy="266" r="4" fill="blue"/>
    <circle cx="560" cy="266" r="4" fill="blue"/>
    <circle cx="572" cy="266" r="4" fill="blue"/>
    <circle cx="584" cy="266" r="4" fill="blue"/>
    <circle cx="596" cy="266" r="4" fill="blue"/>
    <circle cx="608" cy="266" r="4" fill="blue"/>
    <circle cx="620" cy="266" r="4" fill="blue"/>
    <circle cx="632" cy="266" r="4" fill="blue"/>
    <circle cx="644" cy="266" r="4" fill="blue"/>
    <circle cx="656" cy="266" r="4" fill="blue"/>
    <circle cx="668" cy="266" r="4" fill="blue"/>
    <circle cx="680" cy="266" r="4" fill="blue"/>
    <circle cx="692" cy="266" r="4" fill="blue"/>
    <circle cx="704" cy="266" r="4" fill="blue"/>
    <circle cx="716" cy="266" r="4" fill="blue"/>
    <circle cx="728" cy="266" r="4" fill="blue"/>
    <circle cx="500" cy="254" r="4" fill="blue"/>
    <circle cx="512" cy="254" r="4" fill="blue"/>
    <circle cx="524" cy="254" r="4" fill="blue"/>
    <circle cx="536" cy="254" r="4" fill="blue"/>
    <circle cx="548" cy="254" r="4" fill="blue"/>
    <circle cx="560" cy="254" r="4" fill="blue"/>
    <circle cx="572" cy="254" r="4" fill="blue"/>
    <circle cx="584" cy="254" r="4" fill="blue"/>
    <circle cx="596" cy="254" r="4" fill="blue"/>
    <circle cx="608" cy="254" r="4" fill="blue"/>
    <circle cx="620" cy="254" r="4" fill="blue"/>
    <circle cx="632" cy="254" r="4" fill="blue"/>
    <circle cx="644" cy="254" r="4" fill="blue"/>
    <circle cx="656" cy="254" r="4" fill="blue"/>
    <circle cx="668" cy="254" r="4" fill="blue"/>
    <circle cx="680" cy="254" r="4" fill="blue"/>
    <circle cx="692" cy="254" r="4" fill="blue"/>
    <circle cx="704" cy="254" r="4" fill="blue"/>
    <circle cx="716" cy="254" r="4" fill="blue"/>
    <circle cx="728" cy="254" r="4" fill="blue"/>
    <circle cx="500" cy="242" r="4" fill="blue"/>
    <circle cx="512" cy="242" r="4" fill="blue"/>
    <circle cx="524" cy="242" r="4" fill="blue"/>
    <circle cx="536" cy="242" r="4" fill="blue"/>
    <circle cx="548" cy="242" r="4" fill="blue"/>
    <circle cx="560" cy="242" r="4" fill="blue"/>
    <circle cx="572" cy="242" r="4" fill="blue"/>
    <circle cx="584" cy="242" r="4" fill="blue"/>
    <circle cx="596" cy="242" r="4" fill="blue"/>
    <circle cx="608" cy="242" r="4" fill="blue"/>
    <circle cx="620" cy="242" r="4" fill="blue"/>
    <circle cx="632" cy="242" r="4" fill="blue"/>
    <circle cx="644" cy="242" r="4" fill="blue"/>
    <circle cx="656" cy="242" r="4" fill="blue"/>
    <circle cx="668" cy="242" r="4" fill="blue"/>
    <circle cx="680" cy="242" r="4" fill="blue"/>
    <circle cx="692" cy="242" r="4" fill="blue"/>
    <circle cx="704" cy="242" r="4" fill="blue"/>
    <circle cx="716" cy="242" r="4" fill="blue"/>
    <circle cx="728" cy="242" r="4" fill="blue"/>
    <circle cx="500" cy="230" r="4" fill="blue"/>
    <circle cx="512" cy="230" r="4" fill="blue"/>
    <circle cx="524" cy="230" r="4" fill="blue"/>
    <circle cx="536" cy="230" r="4" fill="blue"/>
    <circle cx="548" cy="230" r="4" fill="blue"/>
    <circle cx="560" cy="230" r="4" fill="blue"/>
    <circle cx="572" cy="230" r="4" fill="blue"/>
    <circle cx="584" cy="230" r="4" fill="blue"/>
    <circle cx="596" cy="230" r="4" fill="blue"/>
    <circle cx="608" cy="230" r="4" fill="blue"/>
    <circle cx="620" cy="230" r="4" fill="blue"/>
    <circle cx="632" cy="230" r="4" fill="blue"/>
    <circle cx="644" cy="230" r="4" fill="blue"/>
    <circle cx="656" cy="230" r="4" fill="blue"/>
    <circle cx="668" cy="230" r="4" fill="blue"/>
    <circle cx="680" cy="230" r="4" fill="blue"/>
    <circle cx="692" cy="230" r="4" fill="blue"/>
    <circle cx="704" cy="230" r="4" fill="blue"/>
    <circle cx="716" cy="230" r="4" fill="blue"/>
    <circle cx="728" cy="230" r="4" fill="blue"/>
    <circle cx="500" cy="218" r="4" fill="blue"/>
    <circle cx="512" cy="218" r="4" fill="blue"/>
    <circle cx="524" cy="218" r="4" fill="blue"/>
    <circle cx="536" cy="218" r="4" fill="blue"/>
    <circle cx="548" cy="218" r="4" fill="blue"/>
    <circle cx="560" cy="218" r="4" fill="blue"/>
    <circle cx="572" cy="218" r="4" fill="blue"/>
    <circle cx="584" cy="218" r="4" fill="blue"/>
    <circle cx="596" cy="218" r="4" fill="blue"/>
    <circle cx="608" cy="218" r="4" fill="blue"/>
    <circle cx="620" cy="218" r="4" fill="blue"/>
    <circle cx="632" cy="218" r="4" fill="blue"/>
    <circle cx="644" cy="218" r="4" fill="blue"/>
    <circle cx="656" cy="218" r="4" fill="blue"/>
    <circle cx="668" cy="218" r="4" fill="blue"/>
    <circle cx="680" cy="218" r="4" fill="blue"/>
    <circle cx="692" cy="218" r="4" fill="blue"/>
    <circle cx="704" cy="218" r="4" fill="blue"/>
    <circle cx="716" cy="218" r="4" fill="blue"/>
    <circle cx="728" cy="218" r="4" fill="blue"/>
    <circle cx="500" cy="206" r="4" fill="blue"/>
    <circle cx="512" cy="206" r="4" fill="blue"/>
    <circle cx="524" cy="206" r="4" fill="blue"/>
    <circle cx="536" cy="206" r="4" fill="blue"/>
    <circle cx="548" cy="206" r="4" fill="blue"/>
    <circle cx="560" cy="206" r="4" fill="blue"/>
    <circle cx="572" cy="206" r="4" fill="blue"/>
    <circle cx="584" cy="206" r="4" fill="blue"/>
    <circle cx="596" cy="206" r="4" fill="blue"/>
    <circle cx="608" cy="206" r="4" fill="blue"/>
    <circle cx="620" cy="206" r="4" fill="blue"/>
    <circle cx="632" cy="206" r="4" fill="blue"/>
    <circle cx="644" cy="206" r="4" fill="blue"/>
    <circle cx="656" cy="206" r="4" fill="blue"/>
    <circle cx="668" cy="206" r="4" fill="blue"/>
    <circle cx="680" cy="206" r="4" fill="blue"/>
    <circle cx="692" cy="206" r="4" fill="blue"/>
    <circle cx="704" cy="206" r="4" fill="blue"/>
    <circle cx="716" cy="206" r="4" fill="blue"/>
    <circle cx="728" cy="206" r="4" fill="blue"/>
    <circle cx="500" cy="194" r="4" fill="blue"/>
    <circle cx="512" cy="194" r="4" fill="blue"/>
    <circle cx="524" cy="194" r="4" fill="blue"/>
    <circle cx="536" cy="194" r="4" fill="blue"/>
    <circle cx="548" cy="194" r="4" fill="blue"/>
    <circle cx="560" cy="194" r="4" fill="blue"/>
    <circle cx="572" cy="194" r="4" fill="blue"/>
    <circle cx="584" cy="194" r="4" fill="blue"/>
    <circle cx="596" cy="194" r="4" fill="blue"/>
    <circle cx="608" cy="194" r="4" fill="blue"/>
    <circle cx="620" cy="194" r="4" fill="blue"/>
    <circle cx="632" cy="194" r="4" fill="blue"/>
    <circle cx="644" cy="194" r="4" fill="blue"/>
    <circle cx="656" cy="194" r="4" fill="blue"/>
    <circle cx="668" cy="194" r="4" fill="blue"/>
    <circle cx="680" cy="194" r="4" fill="blue"/>
    <circle cx="692" cy="194" r="4" fill="blue"/>
    <circle cx="704" cy="194" r="4" fill="blue"/>
    <circle cx="716" cy="194" r="4" fill="blue"/>
    <circle cx="728" cy="194" r="4" fill="blue"/>
    <circle cx="500" cy="182" r="4" fill="blue"/>
    <circle cx="512" cy="182" r="4" fill="blue"/>
    <circle cx="524" cy="182" r="4" fill="blue"/>
    <circle cx="536" cy="182" r="4" fill="blue"/>
    <circle cx="548" cy="182" r="4" fill="blue"/>
    <circle cx="560" cy="182" r="4" fill="blue"/>
    <circle cx="572" cy="182" r="4" fill="blue"/>
    <circle cx="584" cy="182" r="4" fill="blue"/>
    <circle cx="596" cy="182" r="4" fill="blue"/>
    <circle cx="608" cy="182" r="4" fill="blue"/>
    <circle cx="620" cy="182" r="4" fill="blue"/>
    <circle cx="632" cy="182" r="4" fill="blue"/>
    <circle cx="644" cy="182" r="4" fill="blue"/>
    <circle cx="656" cy="182" r="4" fill="blue"/>
    <circle cx="668" cy="182" r="4" fill="blue"/>
    <circle cx="680" cy="182" r="4" fill="blue"/>
    <circle cx="692" cy="182" r="4" fill="blue"/>
    <circle cx="704" cy="182" r="4" fill="blue"/>
    <circle cx="716" cy="182" r="4" fill="blue"/>
    <circle cx="728" cy="182" r="4" fill="blue"/>
    <circle cx="500" cy="170" r="4" fill="blue"/>
    <circle cx="512" cy="170" r="4" fill="blue"/>
    <circle cx="524" cy="170" r="4" fill="blue"/>
    <circle cx="536" cy="170" r="4" fill="blue"/>
    <circle cx="548" cy="170" r="4" fill="blue"/>
    <circle cx="560" cy="170" r="4" fill="blue"/>
    <circle cx="572" cy="170" r="4" fill="blue"/>
    <circle cx="584" cy="170" r="4" fill="blue"/>
    <circle cx="596" cy="170" r="4" fill="blue"/>
    <circle cx="608" cy="170" r="4" fill="blue"/>
    <circle cx="620" cy="170" r="4" fill="blue"/>
    <circle cx="632" cy="170" r="4" fill="blue"/>
    <circle cx="644" cy="170" r="4" fill="blue"/>
    <circle cx="656" cy="170" r="4" fill="blue"/>
    <circle cx="668" cy="170" r="4" fill="blue"/>
    <circle cx="680" cy="170" r="4" fill="blue"/>
    <circle cx="692" cy="170" r="4" fill="blue"/>
    <circle cx="704" cy="170" r="4" fill="blue"/>
    <circle cx="716" cy="170" r="4" fill="blue"/>
    <circle cx="728" cy="170" r="4" fill="blue"/>
    <circle cx="500" cy="158" r="4" fill="blue"/>
    <circle cx="512" cy="158" r="4" fill="blue"/>
    <circle cx="524" cy="158" r="4" fill="blue"/>
    <circle cx="536" cy="158" r="4" fill="blue"/>
    <circle cx="548" cy="158" r="4" fill="blue"/>
    <circle cx="560" cy="158" r="4" fill="blue"/>
    <circle cx="572" cy="158" r="4" fill="blue"/>
    <circle cx="584" cy="158" r="4" fill="blue"/>
    <circle cx="596" cy="158" r="4" fill="blue"/>
    <circle cx="608" cy="158" r="4" fill="blue"/>
    <circle cx="620" cy="158" r="4" fill="blue"/>
    <circle cx="632" cy="158" r="4" fill="blue"/>
    <circle cx="644" cy="158" r="4" fill="blue"/>
    <circle cx="656" cy="158" r="4" fill="blue"/>
    <circle cx="668" cy="158" r="4" fill="blue"/>
    <circle cx="680" cy="158" r="4" fill="blue"/>
    <circle cx="692" cy="158" r="4" fill="blue"/>
    <circle cx="704" cy="158" r="4" fill="blue"/>
    <circle cx="716" cy="158" r="4" fill="blue"/>
    <circle cx="728" cy="158" r="4" fill="blue"/>
    <circle cx="500" cy="146" r="4" fill="blue"/>
    <circle cx="512" cy="146" r="4" fill="blue"/>
    <circle cx="524" cy="146" r="4" fill="blue"/>
    <circle cx="536" cy="146" r="4" fill="blue"/>
    <circle cx="548" cy="146" r="4" fill="blue"/>
    <circle cx="560" cy="146" r="4" fill="blue"/>
    <circle cx="572" cy="146" r="4" fill="blue"/>
    <circle cx="584" cy="146" r="4" fill="blue"/>
    <circle cx="596" cy="146" r="4" fill="blue"/>
    <circle cx="608" cy="146" r="4" fill="blue"/>
    <circle cx="620" cy="146" r="4" fill="blue"/>
    <circle cx="632" cy="146" r="4" fill="blue"/>
    <circle cx="644" cy="146" r="4" fill="blue"/>
    <circle cx="656" cy="146" r="4" fill="blue"/>
    <circle cx="668" cy="146" r="4" fill="blue"/>
    <circle cx="680" cy="146" r="4" fill="blue"/>
    <circle cx="692" cy="146" r="4" fill="blue"/>
    <circle cx="704" cy="146" r="4" fill="blue"/>
    <circle cx="716" cy="146" r="4" fill="blue"/>
    <circle cx="728" cy="146" r="4" fill="blue"/>
    <circle cx="500" cy="134" r="4" fill="blue"/>
    <circle cx="512" cy="134" r="4" fill="blue"/>
    <circle cx="524" cy="134" r="4" fill="blue"/>
    <circle cx="536" cy="134" r="4" fill="blue"/>
    <circle cx="548" cy="134" r="4" fill="blue"/>
    <circle cx="560" cy="134" r="4" fill="blue"/>
    <circle cx="572" cy="134" r="4" fill="blue"/>
    <circle cx="584" cy="134" r="4" fill="blue"/>
    <circle cx="596" cy="134" r="4" fill="blue"/>
    <circle cx="608" cy="134" r="4" fill="blue"/>
    <circle cx="620" cy="134" r="4" fill="blue"/>
    <circle cx="632" cy="134" r="4" fill="blue"/>
    <circle cx="644" cy="134" r="4" fill="blue"/>
    <circle cx="656" cy="134" r="4" fill="blue"/>
    <circle cx="668" cy="134" r="4" fill="blue"/>
    <circle cx="680" cy="134" r="4" fill="blue"/>
    <circle cx="692" cy="134" r="4" fill="blue"/>
    <circle cx="704" cy="134" r="4" fill="blue"/>
    <circle cx="716" cy="134" r="4" fill="blue"/>
    <circle cx="728" cy="134" r="4" fill="blue"/>
    <circle cx="500" cy="122" r="4" fill="blue"/>
    <circle cx="512" cy="122" r="4" fill="blue"/>
    <circle cx="524" cy="122" r="4" fill="blue"/>
    <circle cx="536" cy="122" r="4" fill="blue"/>
    <circle cx="548" cy="122" r="4" fill="blue"/>
    <circle cx="560" cy="122" r="4" fill="blue"/>
    <circle cx="572" cy="122" r="4" fill="black"/>
    <circle cx="584" cy="122" r="4" fill="black"/>
    <circle cx="596" cy="122" r="4" fill="black"/>
    <circle cx="608" cy="122" r="4" fill="black"/>
    <circle cx="620" cy="122" r="4" fill="black"/>
    <circle cx="632" cy="122" r="4" fill="black"/>
    <circle cx="644" cy="122" r="4" fill="black"/>
    <circle cx="656" cy="122" r="4" fill="black"/>
    <circle cx="668" cy="122" r="4" fill="black"/>
    <circle cx="680" cy="122" r="4" fill="black"/>
    <circle cx="692" cy="122" r="4" fill="black"/>
    <circle cx="704" cy="122" r="4" fill="black"/>
    <circle cx="716" cy="122" r="4" fill="black"/>
    <circle cx="728" cy="122" r="4" fill="black"/>
    <circle cx="500" cy="110" r="4" fill="black"/>
    <circle cx="512" cy="110" r="4" fill="black"/>
    <circle cx="524" cy="110" r="4" fill="black"/>
    <circle cx="536" cy="110" r="4" fill="black"/>
    <circle cx="548" cy="110" r="4" fill="black"/>
    <circle cx="560" cy="110" r="4" fill="black"/>
    <circle cx="572" cy="110" r="4" fill="black"/>
    <circle cx="584" cy="110" r="4" fill="black"/>
    <circle cx="596" cy="110" r="4" fill="black"/>
    <circle cx="608" cy="110" r="4" fill="black"/>
    <circle cx="620" cy="110" r="4" fill="black"/>
    <circle cx="632" cy="110" r="4" fill="black"/>
    <circle cx="644" cy="110" r="4" fill="black"/>
    <circle cx="656" cy="110" r="4" fill="black"/>
    <circle cx="668" cy="110" r="4" fill="black"/>
    <circle cx="680" cy="110" r="4" fill="black"/>
    <circle cx="692" cy="110" r="4" fill="black"/>
    <circle cx="704" cy="110" r="4" fill="black"/>
    <circle cx="716" cy="110" r="4" fill="black"/>
    <circle cx="728" cy="110" r="4" fill="black"/>
    <circle cx="500" cy="98" r="4" fill="black"/>
    <circle cx="512" cy="98" r="4" fill="black"/>
    <circle cx="524" cy="98" r="4" fill="black"/>
    <circle cx="536" cy="98" r="4" fill="black"/>
    <circle cx="548" cy="98" r="4" fill="black"/>
    <circle cx="560" cy="98" r="4" fill="black"/>
    <circle cx="572" cy="98" r="4" fill="black"/>
    <circle cx="584" cy="98" r="4" fill="black"/>
    <circle cx="596" cy="98" r="4" fill="black"/>
    <circle cx="608" cy="98" r="4" fill="black"/>
    <circle cx="620" cy="98" r="4" fill="black"/>
    <circle cx="632" cy="98" r="4" fill="black"/>
    <circle cx="644" cy="98" r="4" fill="black"/>
    <circle cx="656" cy="98" r="4" fill="black"/>
    <circle cx="668" cy="98" r="4" fill="black"/>
    <circle cx="680" cy="98" r="4" fill="black"/>
    <circle cx="692" cy="98" r="4" fill="black"/>
    <circle cx="704" cy="98" r="4" fill="black"/>
    <circle cx="716" cy="98" r="4" fill="black"/>
    <circle cx="728" cy="98" r="4" fill="black"/>
    <circle cx="500" cy="86" r="4" fill="black"/>
    <circle cx="512" cy="86" r="4" fill="black"/>
    <circle cx="524" cy="86" r="4" fill="black"/>
    <circle cx="536" cy="86" r="4" fill="black"/>
    <circle cx="548" cy="86" r="4" fill="black"/>
    <circle cx="560" cy="86" r="4" fill="black"/>
    <circle cx="572" cy="86" r="4" fill="black"/>
    <circle cx="584" cy="86" r="4" fill="black"/>
    <circle cx="596" cy="86" r="4" fill="black"/>
    <circle cx="608" cy="86" r="4" fill="black"/>
    <circle cx="620" cy="86" r="4" fill="black"/>
    <circle cx="632" cy="86" r="4" fill="black"/>
    <circle cx="644" cy="86" r="4" fill="black"/>
    <circle cx="656" cy="86" r="4" fill="black"/>
    <circle cx="668" cy="86" r="4" fill="black"/>
    <circle cx="680" cy="86" r="4" fill="black"/>
    <circle cx="692" cy="86" r="4" fill="black"/>
    <circle cx="704" cy="86" r="4" fill="black"/>
    <circle cx="716" cy="86" r="4" fill="black"/>
    <circle cx="728" cy="86" r="4" fill="black"/>
</svg>
